<?xml version="1.0" standalone="no"?> <!DOCTYPE svg PUBLIC "-//W3C//DTD SVG 1.0//EN" "http://www.w3.org/TR/2001/REC-SVG-20010904/DTD/svg10.dtd" > <svg xmlns="http://www.w3.org/2000/svg" width="100%" height="100%">
<defs >
<font id="247509" horiz-adv-x="1076" ><font-face
    font-family="Trebuchet MS"
    units-per-em="2048"
    panose-1="2 11 6 0 2 2 2 2 2 4"
    ascent="1923"
    descent="-599"
    alphabetic="0" />
<missing-glyph horiz-adv-x="1024" />
<glyph unicode=" " glyph-name="space" horiz-adv-x="617" />
<glyph unicode="!" glyph-name="exclam" horiz-adv-x="752" d="M410 1229L456 1189V1156L429 1130Q396 1050 390 965Q396 720 370 654L377 390Q370 344 337 344L304 357V370L277 390L297 945L311 984L304 1004Q317 1083 337 1110L330 1116L370 1209L410 1229ZM284
205Q324 216 363 178Q383 165 403 119V79Q357 -7 330 7L284 13Q252 36 225 73Q211 119 251 192L284 205Z" />
<glyph unicode="&quot;" glyph-name="quotedbl" horiz-adv-x="665" d="M211 1341Q277 1328 264 1262L251 1103L264 1057Q251 978 264 951L238 932Q172 951 165 998Q178 1169 159 1183L172 1282L165 1315Q185 1341 211 1341ZM396 1354L429 1341L449 1275L429 1130L436
912L423 898Q337 885 337 1037L357 1301Q363 1341 396 1354Z" />
<glyph unicode="#" glyph-name="numbersign" horiz-adv-x="1198" d="M447 1420L502 1397Q486 1310 502 1216Q510 1232 612 1216L667 1232L691 1224L816 1240L832 1444Q840 1499 895 1499Q934 1475 934 1444L926 1279L997 1248L1114 1255L1146 1224L1130 1177L1083
1153L926 1138Q879 1130 895 981Q965 997 981 981Q1067 1020 1099 957Q1114 902 1028 879L981 887L879 863Q855 855 855 557Q840 510 800 518Q769 526 777 573L745 620Q761 683 745 769L761 847L675 855Q651 863 612 832Q486 840 455 785Q447 714 471 659Q471 596
439 565L447 479L424 463Q361 463 361 494L337 565Q353 581 337 651Q377 745 353 793L173 753L157 738L94 745L71 793L86 832L306 871Q392 895 384 926L392 1083Q322 1051 251 1051Q196 1020 118 1020Q78 1028 71 1067L102 1130L400 1185Q424 1248 424 1350L447
1420ZM479 926L534 934V926L581 942L628 934L769 957L793 1044Q777 1051 800 1130L643 1138L502 1106L479 1059V926Z" />
<glyph unicode="$" glyph-name="dollar" horiz-adv-x="1074" d="M622 1387Q693 1387 693 1347L677 1100L693 1092Q717 1116 837 1076L940 1012L948 972L932 916H900Q821 1020 669 1028L630 869L638 813L622 781V765L869 614L908 542L924 470Q893 383 797 359L717
343L693 319Q542 319 542 279L550 255L518 32L542 -40L510 -143H438L406 -96L430 96Q414 112 438 295H255L159 343Q88 422 143 462L199 454L263 406Q390 375 462 406L478 558L494 574Q478 598 494 685L446 693L406 685Q247 725 215 773Q183 797 183 885L207 932Q303
1028 375 1060L438 1068L454 1084L550 1100L574 1132L598 1251Q582 1291 606 1299Q582 1339 622 1387ZM406 797L526 805L518 869Q558 885 542 1012L462 988L311 908L287 869L295 829L406 797ZM574 414Q741 438 821 502Q829 518 797 542L638 653H606L582 470L566
446L574 414Z" />
<glyph unicode="%" glyph-name="percent" horiz-adv-x="853" d="M297 1368Q423 1368 443 1235V1209L410 1143L383 1123L370 1097L297 1044L211 1064L178 1083Q126 1156 126 1183L132 1235L178 1308Q264 1387 297 1368ZM231 1143Q238 1130 324 1169L363 1229Q383
1268 324 1288L284 1282L277 1262Q251 1268 225 1242L205 1196L231 1143ZM713 1341Q747 1335 753 1301L727 1242L654 1163L548 1011Q509 925 436 813L429 780L370 680L363 647L291 502L264 396L251 390Q192 390 192 443V482L231 555V575L277 647L317 747L330 753L350
819L495 1057L515 1110L601 1222L680 1295L713 1341ZM542 542V495L568 476L614 509L628 542L621 588L595 608L568 601L542 542ZM462 515L469 575L495 614V634L542 687L588 713Q621 720 654 694V680Q713 634 720 581L661 396L588 370L548 383L482 443L462 515Z"
/>
<glyph unicode="&amp;" glyph-name="ampersand" horiz-adv-x="1182" d="M463 1277Q597 1269 628 1224Q714 1108 707 1055V984Q672 899 659 840L471 626Q550 537 565 492Q597 474 597 448H620L707 636Q730 661 792 662L824 581L801 510L683 366L722 341L816 366L981
510Q1005 528 1052 474V420L965 341H942Q895 251 777 224L675 242L620 296L560 248L479 162L416 117L330 99L322 108L275 89L204 125L126 215L110 260L142 412L196 501L244 572L330 670L322 707Q189 903 204 993L259 1116L283 1125L369 1215Q385 1260 463 1277ZM424
721L463 753L534 859L565 867Q605 1014 620 1062L573 1136L448 1119L314 964Q306 924 384 812L408 760L424 721ZM252 217Q291 208 393 245L448 273L456 301L534 366V402Q424 559 432 578H393L322 504L244 366L220 347V263L252 217Z" />
<glyph unicode="&apos;" glyph-name="quotesingle" horiz-adv-x="327" d="M149 1405Q228 1405 235 1334L228 1232Q251 1201 243 1146L228 1083Q259 1028 235 1004Q165 997 133 1059L118 1279Q102 1373 149 1405Z" />
<glyph unicode="(" glyph-name="parenleft" horiz-adv-x="752" d="M645 1307L685 1275L677 1251L693 1219L606 1140L438 869L422 805L390 757L327 534L311 383L359 247Q406 223 398 143Q383 88 359 96Q255 104 215 438Q223 550 263 622Q247 630 271 701L319 813L327
861L351 885Q446 1140 645 1307Z" />
<glyph unicode=")" glyph-name="parenright" horiz-adv-x="700" d="M311 1283Q375 1283 398 1211Q502 964 486 908Q470 813 486 717L446 598V550L335 279Q351 255 295 191L207 96Q183 80 135 135L143 199L199 247L215 295L271 383Q303 526 343 550Q327 558 375
693Q390 845 375 964L343 1044L351 1052L335 1116L319 1124V1163Q255 1235 311 1283Z" />
<glyph unicode="*" glyph-name="asterisk" horiz-adv-x="1144" d="M395 1081Q489 1071 489 1050L582 863L613 842L665 884Q655 936 780 1040H842L873 998L852 925Q738 790 749 780Q769 759 1040 759Q1144 686 1040 613L728 634L697 613L769 447L842 343V291Q884
250 884 208L832 146L749 166L645 416L624 426L582 530L551 561Q457 530 312 166Q208 156 198 239Q177 270 239 374L312 447Q301 468 343 530L374 551L405 603Q229 613 135 572Q52 572 52 655L62 707L208 728L239 717L281 738L468 749V790L426 852V904Q333 1008
395 1081Z" />
<glyph unicode="+" glyph-name="plus" horiz-adv-x="1146" d="M620 1248Q703 1279 734 1133Q713 998 745 821Q807 811 1008 844L1084 824L1088 769V738L1046 717Q765 717 724 665Q745 437 724 405L734 333Q786 301 765 187L713 135L651 146L609 198L589 405L599
416L578 541Q609 572 547 686L349 655Q329 676 110 645Q38 676 38 717L48 759Q557 821 568 800L599 863L589 1206L620 1248Z" />
<glyph unicode="," glyph-name="comma" horiz-adv-x="752" d="M218 398L289 392Q302 372 340 379L360 347V238L308 96L289 77L231 -45L218 -51Q193 -122 161 -141Q173 -148 135 -212L116 -231Q58 -218 58 -180V-141L103 -90L154 13L167 19L205 109L225 128L244
186Q161 180 154 282Q173 379 218 398Z" />
<glyph unicode="-" glyph-name="hyphen" horiz-adv-x="1152" d="M114 759L426 749L832 790Q852 821 1040 811L1092 759Q1112 665 1050 655L811 665L780 645V655L478 613L468 624L104 613L73 665Q52 759 114 759Z" />
<glyph unicode="." glyph-name="period" horiz-adv-x="752" d="M281 395L395 364L437 291V239Q385 208 405 166Q343 104 312 114Q198 104 166 229Q135 374 281 395Z" />
<glyph unicode="/" glyph-name="slash" horiz-adv-x="1122" d="M1008 1175L1071 1112V1071L977 946L593 593Q551 509 288 232L208 125L166 94Q94 83 62 156Q31 260 125 322L426 624L509 717L780 956L894 1092L1008 1175Z" />
<glyph unicode="0" glyph-name="zero" horiz-adv-x="1074" d="M396 361L499 379L688 447L809 551Q861 602 964 895V1007Q938 1093 869 1153L749 1213Q731 1222 706 1187L284 422Q284 413 396 361ZM198 508L224 525L318 714L404 826L559 1136L577 1144V1179Q542
1196 396 1136Q267 1033 198 921L146 714L163 568L198 508ZM783 1437L843 1411Q835 1360 792 1342L774 1282Q929 1222 1024 1084L1058 947L1041 817L947 568Q869 430 757 361L577 267Q516 275 482 250H361L241 301L189 215L128 144L80 224L103 293L146 370L138
430Q43 568 43 671L86 895Q112 895 112 972L215 1110L293 1162L301 1187Q361 1256 663 1299L740 1403L783 1437Z" />
<glyph unicode="1" glyph-name="one" horiz-adv-x="1074" d="M51 1091L82 1132Q463 1245 484 1328Q545 1328 566 1286L545 1081L494 906L453 638V319Q484 288 473 247L453 175L412 144Q319 113 309 247Q329 309 309 370L329 504Q309 659 329 731L401 1070V1122L340
1111L165 1019Q41 1009 51 1091Z" />
<glyph unicode="2" glyph-name="two" horiz-adv-x="1146" d="M185 1101Q185 1235 607 1369Q834 1379 854 1173V1070Q823 947 782 895L751 875L741 834L350 350L360 329L926 350L1060 370Q1111 350 1132 288Q1081 206 937 216Q751 237 690 206L617 216Q422 175
278 175L206 144H93L82 196L51 226L216 401Q247 473 443 669L576 885L679 1009Q772 1204 710 1256L566 1245L319 1111L278 1050Q185 1070 185 1101Z" />
<glyph unicode="3" glyph-name="three" horiz-adv-x="1074" d="M72 1235Q72 1328 154 1328L165 1317L298 1369L443 1389L463 1369Q453 1400 545 1400Q638 1389 690 1297L669 1163L597 1081L494 998L556 957L587 967L690 875Q782 741 792 648L772 494L690 381Q484
206 268 196Q93 216 41 288Q31 360 72 381Q123 381 216 329Q484 309 690 587L679 710Q607 844 443 864Q237 854 226 834L216 844Q82 782 62 854Q51 937 82 937Q165 937 298 1019L535 1204L576 1266L556 1297H453L206 1225L175 1184Q82 1184 72 1235Z" />
<glyph unicode="4" glyph-name="four" horiz-adv-x="1074" d="M720 1410Q762 1420 803 1348L782 1235L751 1173L710 885L669 792L659 432L700 257Q669 185 628 196L566 216L535 319L545 350L525 422L535 432L515 720L370 638Q72 525 62 823L93 1091L154 1297L185
1338Q247 1348 268 1307V1214L185 864L206 751Q329 741 576 947L648 1286Q690 1389 720 1410Z" />
<glyph unicode="5" glyph-name="five" horiz-adv-x="1074" d="M463 1400L535 1389L556 1410L566 1400L762 1410L834 1441L844 1431Q988 1503 1009 1369Q998 1317 978 1317L854 1328L823 1307L473 1266L401 1081V1050L432 1029Q545 1060 669 998Q864 823 823 772L813
576L762 515L751 473L659 370H617Q494 268 453 288Q278 278 268 309L103 391L62 463Q51 545 82 545L154 535Q278 443 360 432L370 443Q401 422 525 453L597 494L700 638L710 710Q751 782 545 906L360 854Q340 813 288 813Q237 813 226 895V957L257 1009Q319 1389
463 1400Z" />
<glyph unicode="6" glyph-name="six" horiz-adv-x="1074" d="M331 277L491 299L661 352L789 469Q800 597 512 661Q213 629 203 501Q203 309 331 277ZM661 1280Q736 1301 757 1227L747 1163L629 1120L533 1045L363 843Q363 789 320 768L331 757Q459 789 597 779L629
757Q672 789 800 693L875 619L907 544Q917 437 885 373L757 256Q619 213 555 160Q491 171 459 139Q384 160 309 139Q181 171 139 245Q75 352 53 501L64 576L117 651L224 875L491 1173L661 1280Z" />
<glyph unicode="7" glyph-name="seven" horiz-adv-x="1054" d="M53 1216Q43 1291 160 1280Q299 1248 469 1312L587 1301L725 1333L768 1259L747 1120L683 939L661 907Q651 885 693 853Q779 811 747 757Q747 704 619 725L587 683L576 597L533 512L544 480L523 203L491
171Q363 203 373 245L416 523L405 533L459 704L448 715L395 704V715H341Q267 651 224 704Q203 843 320 843Q437 832 501 864L597 1120V1195L363 1184Q267 1141 96 1141L53 1216Z" />
<glyph unicode="8" glyph-name="eight" horiz-adv-x="1074" d="M398 932Q303 953 260 1007L252 1015Q295 961 391 940L572 983L689 1057L716 1136L692 1224L596 1252Q460 1292 348 1220L260 1132V1007Q303 953 399 932L580 975L697 1049L729 1135L719 1220L623
1241L356 1231V1231L623 1241L719 1220L729 1135L697 1049L580 975L398 932ZM373 309Q629 309 715 352L864 437L875 469V597L800 715Q736 800 629 821Q544 800 533 821L320 704Q213 608 171 501Q160 373 373 309ZM57 527L79 612L164 751L249 825V847Q79 964 164
1209Q228 1337 505 1391Q655 1391 751 1348L836 1231Q847 1039 815 1028L783 964L729 911L740 889Q825 868 879 793L985 612Q1007 505 985 399L943 335Q825 228 452 175H335L207 228Q121 281 79 388L57 527Z" />
<glyph unicode="9" glyph-name="nine" horiz-adv-x="1074" d="M256 768L448 779L619 843L704 949Q725 1141 768 1163L757 1227L661 1291L629 1280Q555 1333 352 1248L256 1173L171 960L203 811L256 768ZM75 885V1003L96 1024Q64 1056 128 1173L309 1355L501 1408L608
1376Q832 1419 896 1152L811 811Q736 619 704 459Q725 405 693 309Q725 224 715 85L683 64H629Q555 107 565 160L576 544Q608 533 608 704H565Q565 683 341 619Q96 661 75 885Z" />
<glyph unicode=":" glyph-name="colon" horiz-adv-x="572" d="M228 595Q346 620 378 524T347 325L256 284Q149 305 123 409Q140 563 228 595ZM254 1125Q355 1125 410 1003Q418 920 382 882Q364 900 308 835L262 826Q180 816 134 920Q117 1058 254 1125Z" />
<glyph unicode=";" glyph-name="semicolon" horiz-adv-x="468" d="M216 744L271 736L326 685Q317 648 341 633L333 560Q278 493 248 508Q123 515 123 582Q116 640 139 662L154 670L186 729L216 744ZM179 324H248L318 279L341 190V57L318 -39L241 -187L202 -224Q147
-239 124 -187V-135Q179 -113 241 94L233 109L140 131Q94 183 108 257L179 324Z" />
<glyph unicode="&lt;" glyph-name="less" horiz-adv-x="636" d="M515 1283H553L584 1231L577 1149L530 1129L286 839Q240 755 218 755L194 684Q209 653 355 601L485 477Q500 507 584 394Q599 322 553 291H508L439 383L347 456Q149 570 95 560L50 631L57 694Q110
755 102 777L347 1066L362 1107Q424 1149 515 1283Z" />
<glyph unicode="=" glyph-name="equal" horiz-adv-x="1298" d="M780 1060L790 1050L1164 1081Q1175 988 1227 1008L1206 936L1040 946L582 904L551 884L468 894Q208 821 198 915Q177 988 239 1008Q364 988 780 1060ZM457 478L509 468L717 509H832L863 530Q1144
541 1175 561L1237 530L1227 468H1258Q1268 405 1196 395L1060 416L894 405L852 385L603 374L572 353Q395 353 166 270Q73 281 62 333L83 405L198 437L260 426L322 457Q457 447 468 478H457Z" />
<glyph unicode="&gt;" glyph-name="greater" horiz-adv-x="574" d="M96 1352Q174 1315 188 1284L259 1189L372 1073H386L500 883L493 790L429 726Q379 610 351 589L280 473L252 410L216 326L195 283Q131 262 124 337L131 410L287 715L379 842Q393 852 379 904L323
978Q294 968 152 1136Q64 1280 96 1352Z" />
<glyph unicode="?" glyph-name="question" horiz-adv-x="716" d="M288 1416L433 1425Q561 1425 625 1240Q618 1082 577 1045L489 915L225 710L208 598L261 484L216 384Q128 394 112 450L80 565Q73 691 96 756L177 821Q192 868 343 981L460 1108Q506 1207 478 1289L369
1297L252 1216L184 1137Q169 1119 126 1126L96 1175V1230Q184 1352 288 1416ZM239 276H304L356 230Q367 146 325 109Q239 80 208 173Q198 249 239 276Z" />
<glyph unicode="@" glyph-name="at" horiz-adv-x="1578" d="M789 1379Q1108 1418 1195 972Q1179 948 1203 900H1195L1203 701L1163 574L1100 454L877 207L789 135H765L669 80Q606 80 534 40Q486 56 470 32Q327 64 247 167L143 367L120 494L143 701Q159 717 207
869L231 893Q215 908 231 932L303 1084L398 1187Q462 1211 470 1243L614 1315L677 1323Q717 1363 789 1379ZM422 159H558L645 207L725 223L972 438L1052 566V598Q948 582 877 677L861 661L821 518L741 406L693 375Q582 367 574 351L486 383Q375 486 383 622L390
709Q446 837 510 900L669 972Q781 980 853 956L924 893L956 829Q932 781 980 725Q1100 717 1108 932L1084 1084L1004 1227L885 1283L749 1275Q741 1251 701 1251L677 1227L542 1179L438 1108Q367 1012 287 821L223 590V414L295 271L343 207L422 159ZM534 470L669
478L741 558L821 829V869L733 893Q614 893 558 829L470 677L486 526L534 470Z" />
<glyph unicode="A" glyph-name="A" horiz-adv-x="1208" d="M776 1608V1608V1608ZM334 554V527L396 510L703 519L686 633L668 642L642 791L580 976H563L396 642L334 554ZM580 1187Q615 1187 650 1143L721 914V844Q800 677 773 642L809 580Q879 352 923 264Q905
237 967 176V62L932 44Q897 35 861 97L782 334Q773 387 694 404L642 396L264 413Q158 193 114 9Q79 -9 44 9Q44 62 9 88L44 149Q26 158 79 272L114 316L185 492L220 536V563L246 589Q272 694 308 738L334 765L352 826L439 958L483 1055L510 1072L545 1169L580 1187Z"
/>
<glyph unicode="B" glyph-name="B" horiz-adv-x="1159" d="M460 1168Q408 1160 460 1168ZM416 1312V1312V1312ZM220 670Q287 660 507 775L775 947L890 1081L880 1139L813 1158Q699 1139 622 1158L345 1091L249 1024L211 766L220 670ZM239 124L412 153L440 182L517
191L708 287L804 364L813 354L842 364L938 479Q947 545 919 545L823 584L612 603L574 584L565 593L297 555L287 536L211 517L201 345Q201 182 239 124ZM469 1235L507 1225Q536 1273 794 1254L842 1225Q947 1244 976 1110Q995 1034 938 957Q813 823 651 727L670
708Q890 718 1005 593Q1053 545 1034 421L947 306L880 278L804 211L383 19L325 29L306 10L297 19Q144 -10 134 38Q153 67 96 172L86 526L67 565L96 670Q77 679 105 804L96 842L134 1101Q144 1129 316 1196L469 1235Z" />
<glyph unicode="C" glyph-name="C" horiz-adv-x="1417" d="M1112 1288L1184 1200L1216 1152Q1218 1086 1185 1047H1118L1056 1096L952 1128L675 1035Q520 917 321 684Q166 398 177 360Q144 321 244 230L365 191L620 204L786 256L830 243L1107 347L1173 398H1218L1351
450L1328 386L1395 334Q1362 268 1284 256L1251 268L764 87L443 48Q384 48 288 48L144 114Q55 191 55 334L77 490L155 671Q255 826 320 912Q387 982 620 1150H653L731 1216L941 1281Q1016 1288 1112 1288Z" />
<glyph unicode="D" glyph-name="D" horiz-adv-x="1256" d="M448 1136Q296 1200 448 1136ZM205 258L394 280L526 346Q604 435 637 435L737 557L803 712Q814 855 737 966L664 1020L496 1056L239 1044Q205 1022 194 867L205 258ZM268 1192L565 1196Q753 1129 775
1096V1074L875 974L930 786V664Q886 598 886 520L786 387L664 266L487 155L210 44L177 33L100 55L66 144L77 343L55 565H66Q56 788 76 980L77 1118Q111 1151 268 1192Z" />
<glyph unicode="E" glyph-name="E" horiz-adv-x="1137" d="M824 1224L867 1214L1062 1257L1105 1170Q1127 1127 1062 1084L867 1094L813 1073L672 1062V1073L336 1019L260 986L249 791L260 715H336Q401 759 520 759L531 748L661 769V759Q899 780 932 748V704L813
694L791 661L596 639L520 607Q358 607 238 509L228 206L325 195L553 249Q748 249 889 293V282L932 293L943 249V217L910 184Q574 98 455 98Q433 65 195 22Q87 22 65 76Q87 98 65 368L108 748L98 802L119 1084Q141 1138 206 1159Q228 1138 412 1159L531 1192L834
1224H824Z" />
<glyph unicode="F" glyph-name="F" horiz-adv-x="1075" d="M936 1336L1008 1272L969 1200Q892 1222 694 1200L672 1178Q628 1189 330 1101L264 1057V881L242 848V749L859 826Q859 760 903 727Q892 672 826 672Q760 694 606 672L562 650Q330 639 231 573L176 209Q209
88 143 44Q44 22 44 99V253L110 661Q99 804 132 826Q110 903 132 1167L154 1222L198 1244L275 1211L308 1233L562 1277L936 1336Z" />
<glyph unicode="G" glyph-name="G" horiz-adv-x="1385" d="M757 1390L768 1380Q984 1466 1113 1293V1196L1091 1186H1048L994 1261L876 1293L703 1250L574 1175L315 895Q229 765 175 507L186 345L240 226L326 194L520 205L736 300L844 345L972 376L1005 550Q1048
690 1059 808Q1048 830 887 765Q660 711 574 733L542 787L563 852Q984 895 1156 949L1199 938Q1232 884 1232 830L1199 679L1156 604Q1048 216 1016 216L892 208Q822 183 736 156L660 128Q423 0 218 75Q89 172 46 366Q35 625 67 668L132 852L337 1121L574 1315H606L757
1390Z" />
<glyph unicode="H" glyph-name="H" horiz-adv-x="1340" d="M981 1358Q1056 1337 1046 1272Q1024 1046 992 1002L981 830L905 550Q862 291 862 108L808 75Q765 75 722 172L733 420L765 593L614 614Q593 593 485 614Q474 582 302 582L237 528L194 97Q172 43 129
32Q65 32 43 119L129 658Q226 884 280 1283Q302 1369 334 1380Q399 1390 420 1315L366 927L313 755L334 733L808 744L841 841L916 1293L992 1358H981Z" />
<glyph unicode="I" glyph-name="I" horiz-adv-x="1250" d="M334 1261L528 1250L690 1272V1261Q841 1293 1035 1283L1078 1261L1175 1272L1196 1250L1186 1186Q884 1121 711 1132Q647 1110 668 1035L614 808V733L496 259V226L539 205Q582 226 860 236Q992 237 1013
183L970 119L582 86L539 65Q377 75 377 43L216 54Q96 48 54 97V140L129 183L323 194L377 216Q366 280 399 302Q377 323 410 571L474 819L507 1035L496 1110L463 1099Q302 1099 302 1153Q291 1250 334 1261Z" />
<glyph unicode="J" glyph-name="J" horiz-adv-x="1208" d="M550 1283Q593 1261 798 1283L1153 1326L1175 1315L1164 1207L1132 1218L852 1186L873 808L862 420L873 399Q841 377 841 259L765 151Q604 0 571 11Q388 22 377 43H269L54 183L32 226Q22 291 65 313H119L291
205Q463 140 604 194L690 280L744 420Q722 485 755 679Q722 819 722 1164L690 1186L658 1164L313 1121L280 1175Q269 1240 302 1250L550 1283Z" />
<glyph unicode="K" glyph-name="K" horiz-adv-x="1179" d="M561 1046L576 1052L808 1143H852L884 1099L873 1024L668 959L582 895L345 798Q302 765 356 722L550 571Q841 259 1013 194Q1035 54 1002 43L916 54L862 108L744 172L442 474L377 507L302 582L205 647H183L205
410Q172 280 226 194L183 108Q97 119 65 216L43 550L54 1002L75 1089L65 1132L75 1283L108 1326Q205 1358 216 1218L194 916L216 905L377 949L571 1046H561Z" />
<glyph unicode="L" glyph-name="L" horiz-adv-x="1037" d="M216 1229L291 1164V1002L205 366L216 205L248 194Q356 216 377 194L517 226L852 248L895 194Q895 97 841 97L720 104L176 64Q65 11 43 75L65 269Q43 399 65 571L97 658L129 916L119 927L162 1186L216 1229Z" />
<glyph unicode="M" glyph-name="M" horiz-adv-x="1501" d="M1208 1248Q1279 1248 1291 1201Q1350 977 1336 716L1373 471Q1444 306 1455 224Q1467 129 1420 82H1350Q1232 100 1149 859L1079 765L996 565L867 388L785 212L726 188Q632 177 632 212Q608 424 431
918L361 789L290 447L220 294Q208 106 173 47Q90 0 67 94L114 388L149 447L267 871L326 1048L420 1236L443 1248L537 1189Q573 1165 655 706L690 647L726 506L749 483L914 706L1114 1118L1220 1248H1208Z" />
<glyph unicode="N" glyph-name="N" horiz-adv-x="1307" d="M1059 1318L1130 1236L1106 965Q1130 871 1095 530L1106 447Q1071 353 1083 247L1036 188L953 212Q895 294 824 330L341 930Q306 895 294 765L306 718L235 365L224 106L188 59Q82 24 71 129Q59 341 94
494L118 541L129 694L224 1165L259 1201Q341 1212 377 1177L459 1083L506 977L541 953L565 895L883 518L942 471L989 636V989L965 1106Q1000 1142 989 1283L1059 1318Z" />
<glyph unicode="O" glyph-name="O" horiz-adv-x="1380" d="M80 745Q580 1244 80 745ZM628 1244Q692 1252 628 1244ZM388 188Q459 165 671 235Q824 318 883 412Q953 553 965 553L1036 836L1000 1024L918 1130L742 1142L718 1165L471 1130Q377 1059 330 977L188
612Q165 494 247 282Q294 224 388 188ZM553 1318H753L965 1248L1083 1142Q1165 1012 1156 864L1153 683Q1132 580 1083 459L1048 424Q1036 340 847 153L565 24Q488 8 377 12Q96 100 47 412L59 706L94 753Q118 906 247 1106L341 1212L553 1318Z" />
<glyph unicode="P" glyph-name="P" horiz-adv-x="1142" d="M192 568Q196 564 192 568ZM777 1424V1412Q812 1436 988 1354L1047 1295L1106 1165Q1118 1059 1071 918Q1036 836 859 659L647 530Q400 447 282 459L235 412L212 106L188 47L165 35L70 82L47 177L129
930L188 1153Q200 1192 212 1248Q247 1306 294 1318L506 1389Q584 1400 659 1424H777ZM396 612H467L491 647L620 671L891 859L985 1000L1008 1106Q1016 1220 956 1260L832 1295Q424 1276 373 1165L279 730V636L396 612Z" />
<glyph unicode="Q" glyph-name="Q" horiz-adv-x="1264" d="M884 132Q884 136 884 132ZM435 235H589Q652 264 730 271Q920 324 1000 483L1024 659L1044 740L1048 930L977 1048Q918 1118 659 1153Q459 1153 353 1000L306 942L212 624V435L271 318L435 235ZM668 1336Q792
1344 860 1312L956 1276Q1032 1208 1118 1083V1036Q1201 859 1189 812L1142 483L1071 294L965 212L989 47L1201 -471L1177 -541Q1106 -553 1095 -518L1071 -447L1024 -388L988 -300L895 -94L856 -24Q836 59 777 129Q471 47 412 59L224 141Q94 247 59 447V659L106
847Q177 942 165 989Q271 1153 388 1224Q612 1342 668 1336Z" />
<glyph unicode="R" glyph-name="R" horiz-adv-x="1320" d="M592 1204Q492 1244 592 1204ZM572 1284L722 1307H957Q1087 1272 1128 1228Q1205 1154 1193 1130L1181 1001L1122 907Q1004 801 604 636L663 577L946 436L1000 396L1075 354L1148 304Q1252 271 1287 142Q1275
83 1168 84L498 507Q322 589 275 577Q204 377 169 83Q32 36 39 189L75 495L192 836Q204 989 216 1054T263 1201L334 1236L416 1248L572 1284ZM337 730L526 753Q537 777 738 836L973 942L1052 1040L1044 1104L914 1165L785 1153Q640 1148 408 1071L326 789L337 730Z"
/>
<glyph unicode="S" glyph-name="S" horiz-adv-x="1225" d="M528 1016L728 1192L528 1016ZM730 1189Q816 1208 906 1189L1083 1142L1142 1036Q1130 977 1106 977H1048L977 1048L824 1071L530 1012L353 953L271 895Q208 804 282 730L800 624L1083 518Q1259 388 1118
224Q977 94 484 32Q282 35 128 36L59 82Q59 212 118 200L388 177L659 200L777 235Q918 247 1000 336V400L871 459L753 483L565 494L400 541Q368 548 294 565Q188 600 118 730Q28 1128 730 1189Z" />
<glyph unicode="T" glyph-name="T" horiz-adv-x="1453" d="M708 700L720 732L708 700ZM459 1153Q624 1177 736 1180L1328 1216L1384 1168Q1389 1083 1236 1083Q948 1068 836 1048Q765 636 777 541L765 412L756 272L753 118Q730 35 694 35Q612 35 577 141Q580 280
577 341Q616 620 647 895Q683 930 671 1024L647 1048L440 1016L129 965L71 1024Q71 1118 129 1118L392 1160L459 1153Z" />
<glyph unicode="U" glyph-name="U" horiz-adv-x="1328" d="M160 1488V1488V1488ZM208 1264L280 1200Q224 1000 224 800L235 365L271 259L377 200H541L706 282Q953 506 1024 918L1000 1177L1056 1240L1130 1201L1153 895L1059 518L965 330L824 165L777 153L694
94L600 82L577 47L494 12Q412 0 388 35L341 24L153 141Q59 294 59 494Q47 1012 141 1201L208 1264Z" />
<glyph unicode="V" glyph-name="V" horiz-adv-x="1203" d="M952 1208L1056 1248L1096 1160L1064 1072L1024 992Q976 888 883 742L816 640L708 500L541 271Q459 35 412 35Q306 12 259 188L247 282Q200 341 141 647L94 753L106 765Q71 895 48 1128L56 1256L152 1280L208
1144L241 948L282 671L377 388H435L671 706L824 1036L952 1208Z" />
<glyph unicode="W" glyph-name="W" horiz-adv-x="1745" d="M659 1106Q730 1118 753 1071L824 871L812 859Q989 447 1083 353H1118L1389 965L1436 1165L1471 1224Q1648 1448 1589 1118L1389 671L1259 282L1153 71H1071L1000 141L789 518V565L683 777L647 812Q459
518 247 35Q118 0 94 71L47 412L71 1130L118 1212Q224 1224 224 1095Q200 730 224 400Q259 388 388 612Q459 789 659 1106Z" />
<glyph unicode="X" glyph-name="X" horiz-adv-x="1140" d="M1072 1216L1120 1152Q1118 1083 1083 1071L883 883L659 636V600L1024 235Q1071 82 977 71Q930 59 883 106L812 212L541 483L494 494L200 82Q141 24 82 59Q47 71 47 141L71 224L177 377L353 553L412 636L165
1000Q153 1083 188 1118Q259 1130 282 1095Q483 847 494 789L565 753L694 895L777 1000L965 1153L1072 1216Z" />
<glyph unicode="Y" glyph-name="Y" horiz-adv-x="1168" d="M809 1393L870 1341L860 1270L778 1157L758 1085L553 768L430 543L420 481L369 410L358 348L317 287L276 92L236 61Q123 61 133 113V164L195 297L225 420L266 481L287 563Q389 717 369 788Q246 1024 195
1065V1106L51 1321V1403L72 1423Q113 1454 184 1362L430 932L461 901L492 911L748 1352L819 1393H809Z" />
<glyph unicode="Z" glyph-name="Z" horiz-adv-x="1151" d="M773 1225Q904 1215 1064 1255Q1104 1245 1114 1195V1144L1034 1094L974 1024Q853 944 602 693L592 663L522 602L512 572L381 422L251 231L261 221L1064 291L1124 211L1094 141L954 161L914 141L793 151Q552
120 542 131L442 100L432 110L271 80L261 60L251 70L80 60L40 100L60 211L141 321L181 351L331 572L673 954L823 1084L813 1104Q703 1114 703 1084L632 1104L602 1084Q542 1124 241 1004L181 1084Q211 1165 291 1165L773 1225Z" />
<glyph unicode="[" glyph-name="bracketleft" horiz-adv-x="1064" d="M1001 1161L1024 1104L978 1070L637 1092Q432 1047 398 1081Q375 1035 319 1035L284 785Q319 740 262 512Q284 466 262 -46Q273 -80 330 -91L489 -68Q683 -91 694 -68Q774 -114 819 -68Q922
-102 933 -148Q956 -228 887 -250L649 -216L535 -239L410 -228L205 -284Q114 -319 80 -159L102 -114L91 -91L114 0L137 546Q114 569 148 694L137 887Q171 944 159 1104Q568 1272 1001 1161Z" />
<glyph unicode="\" glyph-name="backslash" horiz-adv-x="924" d="M173 1168H197L255 1119V1102L296 1053L543 625L600 559L683 395L765 304L798 247Q806 181 773 156H724L666 206L633 296L518 493L362 716L280 880Q255 888 197 1028L140 1102Q140 1151 173 1168Z" />
<glyph unicode="]" glyph-name="bracketright" horiz-adv-x="1224" d="M264 -368V-360V-368ZM410 1149L546 1138Q558 1172 1115 1161L1138 1092L1149 899Q1172 774 1149 102L1172 -216Q1161 -262 1104 -273Q967 -330 444 -398L353 -410Q224 -416 159 -455L80 -410V-319L114
-273Q137 -296 284 -273L444 -250L671 -182L876 -148Q899 -114 938 -119T1013 11L1001 569L1024 717L990 1047L928 1048L768 1064L626 1024L523 1035L455 1001L421 1013Q364 978 273 978L216 1047Q216 1149 410 1149Z" />
<glyph unicode="^" glyph-name="asciicircum" horiz-adv-x="1074" d="M480 1344L568 1272Q600 1168 632 1080L706 880L751 815V764L732 751Q687 745 668 764L578 924L496 1104L456 1184Q384 1136 248 960L154 796Q96 783 90 847L109 899L224 1112L320 1216Q392
1278 480 1344Z" />
<glyph unicode="_" glyph-name="underscore" horiz-adv-x="1074" d="M136 -134L396 -124L684 -112Q788 -99 954 -105L1000 -134Q1019 -186 963 -192L744 -200L725 -198V-192L448 -209L128 -215L56 -184Q81 -134 136 -134Z" />
<glyph unicode="`" glyph-name="grave" horiz-adv-x="622" d="M273 1617Q362 1617 371 1540L374 1462Q389 1396 380 1335Q398 1206 371 1181Q291 1172 257 1241L239 1480Q221 1584 273 1617Z" />
<glyph unicode="a" glyph-name="a" horiz-adv-x="1268" d="M199 207L156 233V337L207 484L320 657Q536 855 650 828L683 804L622 639L510 449Q449 363 320 251L199 207ZM156 337V233L199 207L320 251Q449 363 510 449L622 639L665 795L683 804V838Q536 855 320
657L207 484L156 337ZM43 216Q52 389 69 415L164 605L311 769Q510 916 648 925Q760 959 810 870L822 814L782 672Q756 582 769 510L786 285L804 225Q838 216 881 251L1020 346L1167 467L1227 458L1218 415L916 138L838 35H769Q709 69 683 207L648 475L458 225L320
112Q130 43 43 216ZM199 207L320 251Q449 363 510 449L622 639L665 795L683 804V838Q536 855 320 657L207 484L156 337V233L199 207Z" />
<glyph unicode="b" glyph-name="b" horiz-adv-x="945" d="M346 572L292 480Q268 394 268 322L285 175L311 157Q423 149 579 322L674 477L700 615Q700 685 634 686L532 666L346 572ZM288 1304Q376 1428 353 1194L309 702L327 685L361 693Q482 814 664 797L759 736L802
641Q828 425 603 175Q439 19 266 36Q180 45 171 339Q170 418 171 512L184 628L206 797L223 840Q249 1203 288 1304Z" />
<glyph unicode="c" glyph-name="c" horiz-adv-x="1014" d="M686 800L552 832L424 792L239 649L160 463L168 321L222 241L372 188L470 197L585 224L754 330Q780 436 842 410Q895 383 884 316Q656 126 505 82H328L275 91L186 144Q35 303 53 321Q35 410 89 569L186
711L319 844Q399 915 585 924Q709 933 727 897Q816 835 842 729L825 667H771L745 694L686 800Z" />
<glyph unicode="d" glyph-name="d" horiz-adv-x="1141" d="M239 168Q257 151 452 204Q479 231 576 266L727 372L762 470L780 594L776 680Q780 833 630 856L514 860L417 789L293 665Q204 541 142 346V248Q186 195 239 168ZM895 1463Q966 1410 958 1383L940 1161Q958
1108 940 940L895 656L884 528Q882 418 895 266L851 222H789L762 257L727 248L656 186L585 142L518 116Q363 27 222 53L124 115Q35 239 44 266V381L124 567L275 789L381 878L559 966Q630 962 665 966L727 931L798 892L816 931Q860 1392 842 1401Q851 1445 895 1463Z"
/>
<glyph unicode="e" glyph-name="e" horiz-adv-x="1117" d="M224 608L304 616L394 668L488 688L709 788L727 862Q754 917 674 930H567Q505 905 443 874L336 768L272 712L224 608ZM567 1062Q816 1095 816 895L780 703L754 664L698 660L585 632Q452 576 374 548L195
456Q151 289 390 210L505 202L656 258Q736 330 780 241L745 186Q700 178 647 130L514 98H399Q328 106 231 170L142 250Q89 313 71 472L89 576Q98 612 115 656Q213 815 248 839L390 975L479 1031L567 1062Z" />
<glyph unicode="f" glyph-name="f" horiz-adv-x="1317" d="M1128 1532Q1237 1419 1255 1303L1211 1250L1166 1268L1122 1401L1086 1436Q1069 1427 1016 1463L847 1410L776 1356L670 1197L572 869L555 851L563 833Q537 789 537 700Q640 704 720 724Q816 736 891
762L945 700L924 652Q847 612 617 603Q563 559 537 576Q492 550 484 479L457 89L466 35L457 -53L448 -231L430 -266H368Q352 -240 324 -213L351 195L359 381L377 523L368 532L94 461Q49 452 40 514L49 550L76 567L156 576L368 638L413 683L448 833V887L528 1126L555
1161L608 1303Q670 1419 812 1498L964 1552L1128 1532Z" />
<glyph unicode="g" glyph-name="g" horiz-adv-x="972" d="M674 506L532 372Q408 293 248 293Q133 355 156 440L204 559Q266 656 366 718L559 780L668 732L694 668L700 550L674 506ZM160 399Q133 355 248 293Q408 293 532 372L683 505L700 550V674L674 736L559
780L363 718Q266 656 204 559L160 399ZM62 337V450Q62 541 160 665L328 789L496 860Q603 869 674 842L780 762Q825 718 833 594L851 275Q878 -98 762 -257Q727 -310 585 -408L464 -448Q384 -460 330 -456T198 -442L106 -434L53 -381Q35 -319 89 -293Q106 -319 231
-319L488 -310L594 -266L683 -160L727 -35Q732 196 720 288L692 381L541 257L372 186Q106 133 62 337ZM248 293Q408 293 532 372L683 505L700 550V674L674 736L559 780L363 718Q266 656 204 559L160 399Q133 355 248 293Z" />
<glyph unicode="h" glyph-name="h" horiz-adv-x="1119" d="M214 162Q224 64 170 28Q98 10 72 99L89 538L107 752Q125 788 160 1040Q184 1168 200 1264L232 1336H312L295 1181L224 752L233 725Q206 529 215 466H241L447 752Q563 842 653 851Q787 851 805 770L823
681Q805 546 859 153L832 117Q724 108 724 144L698 350Q715 573 698 725Q563 734 456 600L340 412L240 292L214 162Z" />
<glyph unicode="i" glyph-name="i" horiz-adv-x="628" d="M313 1341Q367 1350 385 1279Q349 1127 364 1012L336 964L286 957L259 1002L268 1288Q286 1333 313 1341ZM197 805Q259 823 277 760L268 653L224 546L215 465Q216 408 215 349L233 241L268 224L349 241L501
367L546 331L537 268Q402 89 304 89Q250 63 125 143Q72 250 80 322L89 528L107 554L152 751L197 805Z" />
<glyph unicode="j" glyph-name="j" horiz-adv-x="975" d="M808 1233L861 1188Q844 1080 861 1009Q835 902 799 857Q727 875 736 928L745 1152Q790 1241 808 1233ZM761 724Q804 733 811 671Q818 581 804 501L790 268L746 72L739 27Q746 -89 725 -170L703 -241L625
-465L560 -554L488 -599Q331 -590 324 -572L152 -465Q123 -420 66 -402L45 -358Q52 -277 66 -277L116 -286Q159 -349 317 -447L388 -465Q474 -492 539 -402Q632 -161 637 -92Q649 -4 661 89L710 483Q703 689 761 724Z" />
<glyph unicode="k" glyph-name="k" horiz-adv-x="1061" d="M386 1364L458 1300L416 1141Q398 1037 369 1009L322 680L445 699Q632 793 679 803L783 831Q877 850 886 793Q886 727 849 737Q784 718 698 680Q623 643 388 568L501 389L632 267L792 173Q896 182 933
145Q942 60 905 60L745 70L642 107L567 164L539 182L407 276L322 399L275 427L257 136Q228 107 172 117L144 201Q168 580 219 831L228 887L313 1263L386 1364Z" />
<glyph unicode="l" glyph-name="l" horiz-adv-x="812" d="M150 303L136 304L150 303ZM296 1464L301 1306L254 1024Q272 958 254 846L216 658L197 498L207 263L291 197Q385 216 442 197Q564 246 643 270T761 272Q770 235 733 197Q526 75 357 66L197 85Q103 141
85 235L66 376L75 460Q80 510 85 548T103 686L141 1156L188 1334L208 1440L296 1464Z" />
<glyph unicode="m" glyph-name="m" horiz-adv-x="1412" d="M592 968Q667 968 695 930L714 799L695 564L714 489L752 498Q827 620 855 629Q846 648 996 827L1127 930Q1212 958 1249 836L1268 620L1249 150Q1278 75 1221 28Q1090 19 1109 197L1137 582L1127 761Q1099
780 1033 714L1024 667L939 545Q827 451 761 310L733 160Q695 56 629 66Q582 94 573 160L582 770Q564 780 507 705L319 432L178 85Q141 38 75 103L132 573Q169 611 169 846L235 977Q291 986 310 911Q272 780 272 601Q291 592 385 705Q489 874 592 968Z" />
<glyph unicode="n" glyph-name="n" horiz-adv-x="959" d="M695 958Q808 958 808 836Q780 507 836 178L789 103L714 122Q658 188 667 291Q658 545 686 733L676 808L620 799L535 676L479 592L244 207L197 56Q169 9 103 28L66 103V225L141 855L178 892L244 846Q250
776 244 705L225 582Q210 502 196 388Q263 451 272 479L460 789L573 911Q608 928 639 949L705 958H695Z" />
<glyph unicode="o" glyph-name="o" horiz-adv-x="963" d="M319 169Q366 188 385 169L442 188L582 291Q676 395 695 470L752 723Q761 742 686 874L620 902L489 892L357 799L348 761L244 667L188 535Q178 385 207 263Q225 207 319 169ZM188 535Q178 385 207 263Q225
207 319 169Q366 188 385 169L442 188L582 291Q676 395 695 470L752 723Q761 742 686 874L620 902L489 892L357 799L348 761L244 667L188 535ZM56 395Q56 532 85 620L178 770L316 936L460 1024H545Q604 1020 676 996L742 958Q827 892 846 742L836 526L770 348L714
244L601 132Q507 47 479 47Q366 28 338 28Q298 38 244 47Q80 96 56 395ZM275 163Q181 201 163 257Q134 379 144 529L200 661L278 760L313 793L445 886L576 896L642 868Q746 782 738 622L698 466Q670 370 550 258L444 166Q334 158 275 163Z" />
<glyph unicode="p" glyph-name="p" horiz-adv-x="1141" d="M376 413L545 432L733 545Q836 667 883 799L852 918L786 946Q686 958 592 864L404 676Q322 622 291 489L301 451L376 413ZM301 1015Q348 1005 348 986L329 827L338 789H366L554 977L648 1024Q692 1040
742 1052Q911 1071 924 1032L977 968L996 883Q1005 705 977 676L855 489Q752 376 526 291Q301 310 263 282L235 66L222 20Q225 -47 207 -113L192 -196L197 -357Q188 -451 169 -489L113 -535Q66 -526 56 -432Q47 -357 56 -226T94 19L113 75Q150 432 197 639Q178
658 197 761L235 958L301 1015Z" />
<glyph unicode="q" glyph-name="q" horiz-adv-x="1141" d="M216 357H357L470 423L573 535L632 596Q652 652 667 733V770L629 808L526 827Q301 836 178 535L184 436L216 357ZM68 504L125 711L266 861Q416 937 491 937Q566 955 707 890L735 1059Q782 1115 829 1096L858
993L820 711L801 664L811 617Q745 345 754 260L726 166L717 16L698 -12L707 -40L688 -322L698 -341L726 -332Q867 -181 914 -172Q970 -163 980 -228L961 -285L717 -529L688 -538Q585 -548 557 -473L566 -444Q538 -304 632 420L585 392L407 260L237 232Q78 288 68
504Z" />
<glyph unicode="r" glyph-name="r" horiz-adv-x="1020" d="M264 1096Q312 968 272 792L328 796Q488 968 648 1056Q880 1176 880 952L912 712Q768 668 776 806T657 909L448 740L320 628L272 512L232 364Q232 260 184 108Q112 70 68 158Q57 267 124 632Q145 768
160 1024L264 1096Z" />
<glyph unicode="s" glyph-name="s" horiz-adv-x="921" d="M498 1011Q633 1011 700 967Q793 888 785 835L776 756L759 738H734L709 764Q726 914 498 923L330 856L178 729V676L245 641Q616 623 683 588Q810 491 802 456Q819 412 792 330L732 214Q565 68 363 50L254
68Q237 50 186 68L93 121L68 165Q60 245 127 253L160 244Q203 183 245 183Q363 165 455 183L540 218L624 271Q672 302 680 346L675 412Q641 508 599 508L439 535Q288 524 161 544Q134 560 110 579L76 676Q76 747 119 817L338 967Q439 1011 498 1011Z" />
<glyph unicode="t" glyph-name="t" horiz-adv-x="932" d="M292 1149L262 939L392 949L691 999L721 929Q711 839 691 839L422 819L282 809L222 789L172 480Q146 308 192 190L222 170H362L472 210L641 270Q666 290 691 310L744 388L821 430Q861 420 871 370L861
270Q641 110 342 30H182Q72 110 42 280L52 609L72 700L82 789Q52 809 62 869Q90 930 122 959V1009Q168 1168 184 1344L240 1512Q384 1416 292 1149Z" />
<glyph unicode="u" glyph-name="u" horiz-adv-x="1087" d="M242 1000Q285 1000 293 953L216 701L173 488Q156 265 173 227L208 190L336 208L482 330L568 469Q624 488 636 564L679 906L713 991Q782 1018 808 926L799 795Q765 701 756 571V301Q765 236 782 236L911
265L964 214Q876 162 799 87L688 60L636 115Q653 199 636 366H619L559 255L397 115Q250 40 173 68L113 115L88 162L61 273Q54 469 79 628L113 701Q156 944 242 1000Z" />
<glyph unicode="v" glyph-name="v" horiz-adv-x="947" d="M783 1158L858 1115L879 1072L847 976L740 815L654 622L568 525L472 332L440 268L343 86Q257 86 214 129L161 354L150 407L129 472L86 890L64 1008L75 1115L129 1137L172 1126L204 1083L257 654Q322 483
300 440Q322 397 354 429L547 708Q708 1062 783 1158Z" />
<glyph unicode="w" glyph-name="w" horiz-adv-x="1396" d="M733 986H776L808 944L786 660V534L808 462L862 322Q937 268 1098 483Q1130 515 1216 858L1194 976Q1194 1029 1237 1051Q1334 1040 1334 976V815Q1312 672 1269 558Q1240 466 1216 429L1087 236L904
144L797 161L712 247Q680 407 637 450L444 225L266 118Q197 64 120 162L68 257Q79 600 101 643L165 858Q196 934 218 1029L251 1062Q294 1072 336 1029V933L229 547L218 300Q264 272 315 300L497 461L583 579Q658 772 669 922L744 986H733Z" />
<glyph unicode="x" glyph-name="x" horiz-adv-x="1026" d="M139 976Q204 976 268 922L365 836L472 697L536 676Q611 804 826 976L901 954V890L869 826Q622 600 633 536L697 450L922 236L933 129L890 97L815 118Q676 300 493 440L279 257Q182 107 150 118Q86 107
75 182L86 247L407 568L257 751L139 836Q107 890 118 944L139 976Z" />
<glyph unicode="y" glyph-name="y" horiz-adv-x="1082" d="M311 1029Q365 1040 375 965L332 708Q343 643 300 365L322 268L354 257L440 290L579 407L783 686L804 761Q783 772 815 997L869 1040Q954 1051 954 976Q933 804 938 304L901 -247Q836 -386 761 -450Q676
-515 536 -536H472L422 -530L375 -525Q320 -524 244 -502Q156 -486 86 -472L54 -407L75 -311H161Q216 -332 300 -354L429 -375H568L718 -268Q772 -182 793 -86Q804 46 810 176L804 483L772 472Q633 257 558 204Q518 160 407 107L290 86Q182 107 161 343L193 676Q193
740 214 815Q225 933 311 1029Z" />
<glyph unicode="z" glyph-name="z" horiz-adv-x="1212" d="M86 824Q64 909 129 942L622 1017L710 1024Q740 1038 933 1027L965 984V909L844 808L654 598L504 474L311 298L332 266L690 288L946 294Q1008 309 1115 298L1158 234Q1169 170 1126 148L656 150L461 137L332
122Q240 118 107 116Q64 127 64 180L86 266L193 405L332 513Q418 620 600 770L704 880L643 899Q493 877 418 867Q268 856 161 791H118L86 824Z" />
<glyph unicode="{" glyph-name="braceleft" horiz-adv-x="984" d="M696 1480Q936 1528 952 1368L896 1312Q800 1376 657 1328Q600 1249 543 1214Q509 1214 463 987L440 964L452 748Q440 657 383 600L486 475Q463 463 531 304L520 293L531 -105Q600 -231 622 -219L816
-276Q873 -344 839 -367L736 -401Q634 -413 497 -322L372 -185L349 -105Q338 111 372 281Q361 429 338 441L270 498L110 486Q31 554 42 577Q65 646 99 657L110 646L247 691L327 782Q304 862 338 1123L418 1283L520 1374L696 1480Z" />
<glyph unicode="|" glyph-name="bar" horiz-adv-x="582" d="M300 1745Q346 1767 391 1704Q408 1444 391 1193Q372 903 355 619L324 376L309 108L273 77Q228 66 182 192L188 381Q204 629 212 723T237 932L228 1015L232 1215L248 1494L273 1684L300 1745Z" />
<glyph unicode="}" glyph-name="braceright" horiz-adv-x="824" d="M156 1396L182 1462L400 1504Q632 1448 660 1223L637 768Q716 712 780 612L614 551L544 408Q488 328 558 96Q569 -52 523 -165L364 -313L182 -427Q92 -476 48 -428L32 -372Q46 -313 120 -296L262
-199Q364 -108 398 39L375 506Q464 628 532 676Q466 859 512 1223Q489 1359 421 1371H341Q216 1302 156 1396Z" />
<glyph unicode="~" glyph-name="asciitilde" horiz-adv-x="1426" d="M355 1265H482Q501 1274 664 1165Q774 1074 774 1047L892 965H910Q947 892 1056 928L1147 1010L1192 1156L1220 1183Q1302 1174 1311 1120L1283 1010L1247 974Q1265 956 1238 928L1165 847L1074
783H974L828 847L783 901L683 965L610 1056L519 1129L437 1156L337 1138L273 1065L246 910Q228 865 182 883L146 919Q118 974 200 1165L282 1247L355 1265Z" />
</font>
</defs>
</svg>
