<?xml version="1.0" standalone="no"?> <!DOCTYPE svg PUBLIC "-//W3C//DTD SVG 1.0//EN" "http://www.w3.org/TR/2001/REC-SVG-20010904/DTD/svg10.dtd" > <svg xmlns="http://www.w3.org/2000/svg" width="100%" height="100%">
<defs >
<font id="dunkirk" horiz-adv-x="842" ><font-face
    font-family="Dunkirk"
    units-per-em="2048"
    panose-1="2 0 5 6 0 0 0 2 0 4"
    ascent="1375"
    descent="-584"
    alphabetic="0" />
<missing-glyph horiz-adv-x="614" />
<glyph unicode=" " glyph-name="space" horiz-adv-x="614" />
<glyph unicode="!" glyph-name="exclam" horiz-adv-x="493" d="M233 274H229Q204 275 191 296T184 344Q302 776 438 1137Q478 1240 516 1325Q530 1352 555 1363T604 1366Q626 1360 633 1337T629 1288Q586 1194 557 1112L469 864Q363 551 305 332Q299 307 279 291T233
274ZM156 0H154Q128 1 113 20T104 63Q110 89 115 110T122 140T125 150Q136 176 160 190T209 201Q233 195 243 175T246 127Q239 91 229 59Q225 34 203 17T156 0Z" />
<glyph unicode="&quot;" glyph-name="quotedbl" horiz-adv-x="378" d="M272 1268Q296 1268 310 1250T319 1208L301 1110Q298 1086 279 1070T236 1053Q211 1053 197 1069T186 1110L205 1208Q210 1232 229 1250T272 1268ZM395 1053Q370 1053 357 1069T346 1110L365
1208Q370 1232 389 1250T432 1268Q455 1268 469 1250T479 1208L461 1110Q458 1086 439 1070T395 1053Z" />
<glyph unicode="#" glyph-name="numbersign" horiz-adv-x="1222" d="M1212 862Q1236 862 1251 845T1262 805Q1258 780 1238 763T1192 745H1001L889 530H1042Q1066 530 1079 513T1090 473Q1085 448 1066 431T1022 414H829L739 242Q715 203 678 203Q673 203 659
207Q637 215 630 235T637 279L707 414H426L336 242Q312 203 274 203Q268 203 256 207Q234 215 227 235T233 279L303 414H152Q127 414 113 431T104 473Q108 495 128 512T172 530H362L477 745H322Q300 745 286 763T274 805Q279 827 299 844T342 862H539L629 1032Q641
1055 663 1065T707 1069Q728 1060 734 1039T731 995L657 862H942L1032 1032Q1043 1055 1065 1065T1110 1069Q1130 1060 1137 1039T1135 995L1061 862H1212ZM766 530L879 745H598L485 530H766Z" />
<glyph unicode="$" glyph-name="dollar" horiz-adv-x="1107" d="M801 1495Q825 1495 838 1479T848 1438L844 1411Q964 1404 1083 1370Q1108 1364 1120 1343T1124 1296Q1118 1272 1096 1260T1051 1255Q930 1289 821 1292L737 807Q837 754 907 696Q999 620 1038
524Q1063 464 1063 395Q1063 357 1053 309Q1022 194 938 119Q850 38 715 12Q664 2 596 2L584 -66Q581 -90 562 -106T518 -123Q494 -123 480 -107T469 -66L481 8Q418 15 330 45Q215 85 135 143Q84 179 53 221Q38 241 42 265T66 305Q87 319 111 316T152 291Q184 244
305 184Q401 140 504 129L608 731Q517 773 442 838Q366 907 338 979Q317 1037 317 1079Q317 1174 385 1255Q431 1307 489 1339Q593 1397 727 1409L733 1438Q736 1462 756 1478T801 1495ZM872 563Q814 626 715 682L616 123Q642 123 694 131Q790 147 856 207Q918
263 936 338Q942 368 942 395Q942 442 926 479Q908 522 872 563ZM489 961Q541 903 631 856L707 1284Q654 1276 600 1257Q523 1229 477 1178Q400 1071 489 961Z" />
<glyph unicode="%" glyph-name="percent" horiz-adv-x="1122" d="M1186 1339Q1203 1327 1204 1304T1190 1260L186 25Q163 0 133 0Q100 0 88 29T100 88L1102 1323Q1119 1342 1143 1347T1186 1339ZM178 1090Q201 1206 292 1289T487 1372T646 1289T680 1090Q655 973
565 891T371 809T210 891T178 1090ZM283 1085Q269 1018 300 971T389 924Q449 924 499 970T563 1085Q576 1153 545 1201T455 1249Q396 1249 346 1201T283 1085ZM608 270Q631 387 722 470T918 553Q1021 553 1077 470T1110 270Q1085 154 995 72T801 -10Q698 -10 641
72T608 270ZM713 266Q699 199 730 152T819 104Q879 104 929 151T993 266Q1006 334 975 382T885 430Q826 430 776 382T713 266Z" />
<glyph unicode="&amp;" glyph-name="ampersand" horiz-adv-x="1040" d="M1049 115Q1061 95 1053 66T1020 20Q998 3 970 6T928 31Q914 53 881 104T831 182Q786 142 721 104Q545 0 383 0Q278 0 201 41Q128 87 100 151T87 286T137 421T225 553Q338 685 526 815Q511
861 500 922Q479 1033 494 1110Q506 1177 545 1235Q581 1291 639 1325Q673 1347 717 1362Q798 1388 877 1359T985 1251Q996 1218 997 1185T988 1119T963 1058T924 999T879 945T827 894T777 851T728 811T688 778Q689 776 690 771T692 762T696 754Q747 625 872 399Q898
430 934 483Q950 509 978 519T1030 518Q1053 506 1058 480T1049 428Q993 347 938 287Q971 231 1049 115ZM643 1159Q626 1128 624 1079T627 997T645 903Q712 954 750 991Q812 1053 840 1104Q846 1116 849 1134T853 1172T841 1210T809 1235Q757 1249 711 1223T643
1159ZM666 215Q711 243 770 289Q688 429 631 549Q597 614 567 696Q472 624 416 575T324 479Q294 440 273 403T238 324T227 246T258 180Q303 133 406 133Q524 133 666 215Z" />
<glyph unicode="&apos;" glyph-name="quotesingle" horiz-adv-x="219" d="M272 1268Q296 1268 310 1250T319 1208L301 1110Q298 1086 279 1070T236 1053Q211 1053 197 1069T186 1110L205 1208Q210 1232 229 1250T272 1268Z" />
<glyph unicode="(" glyph-name="parenleft" horiz-adv-x="512" d="M657 1470Q675 1456 674 1430T653 1382Q605 1335 545 1243Q486 1154 438 1040Q324 801 276 543Q240 329 254 100Q275 -101 334 -233Q345 -255 335 -281T301 -322Q285 -330 262 -330Q226 -330 215
-303Q153 -179 129 68Q110 300 152 543Q190 746 270 950Q336 1131 440 1296Q492 1382 569 1462Q588 1483 615 1485T657 1470Z" />
<glyph unicode=")" glyph-name="parenright" horiz-adv-x="634" d="M-23 -305Q-41 -291 -39 -265T-18 -217Q36 -162 90 -78Q150 15 197 125Q311 366 358 623Q395 835 381 1065Q360 1265 301 1399Q290 1420 300 1446T334 1487Q350 1495 373 1495Q409 1495 420 1468Q482
1344 506 1098Q525 865 483 623Q446 419 365 215Q296 29 195 -131Q143 -217 66 -297Q47 -318 20 -320T-23 -305Z" />
<glyph unicode="*" glyph-name="asterisk" horiz-adv-x="819" d="M836 1163Q842 1143 832 1120T799 1085L586 975L760 864Q778 852 780 829T768 784Q743 756 711 756Q699 756 684 762L512 874L471 651Q468 627 449 611T406 594Q381 594 367 610T356 651L397 874L182
762Q170 756 154 756Q118 756 109 784Q99 806 109 829T143 864L354 975L182 1085Q163 1096 161 1120T176 1163Q192 1184 215 1191T256 1186L432 1073L471 1296Q476 1321 495 1337T539 1354Q562 1354 576 1337T586 1296L547 1073L758 1186Q783 1197 804 1191T836
1163Z" />
<glyph unicode="+" glyph-name="plus" horiz-adv-x="954" d="M926 721Q950 721 964 704T973 662T949 621T905 604H586L528 287Q525 262 506 246T461 229Q438 229 424 245T412 287L469 604H152Q127 604 113 621T104 662Q109 687 128 704T172 721H489L545 1040Q550
1063 570 1080T612 1098Q637 1098 652 1081T662 1040L606 721H926Z" />
<glyph unicode="," glyph-name="comma" horiz-adv-x="387" d="M236 197Q306 190 321 143T285 10Q284 8 273 -8T258 -29T243 -47T223 -69T201 -88Q186 -96 170 -96Q148 -96 137 -80Q127 -65 132 -47T154 -16Q177 3 184 12Q156 18 141 37Q119 72 127 107T168 170T236 197Z" />
<glyph unicode="-" glyph-name="hyphen" horiz-adv-x="806" d="M778 637Q803 637 816 621T825 580Q822 555 804 539T760 522H154Q129 522 115 538T104 580Q109 604 128 620T172 637H778Z" />
<glyph unicode="." glyph-name="period" horiz-adv-x="376" d="M125 94Q130 132 160 160T229 188Q268 188 292 161T311 94Q305 56 273 28T203 0T142 28T125 94Z" />
<glyph unicode="/" glyph-name="slash" horiz-adv-x="972" d="M969 1380Q988 1369 991 1349T981 1305L168 33Q149 0 113 0Q96 0 86 4Q67 15 63 37T72 80L887 1354Q899 1374 923 1382T969 1380Z" />
<glyph unicode="0" glyph-name="zero" horiz-adv-x="1136" d="M215 68Q119 144 92 283Q74 378 96 510Q117 621 162 735Q252 977 385 1133Q513 1287 670 1350Q761 1389 868 1389Q928 1389 991 1376Q1035 1363 1032 1325Q1093 1272 1114 1231Q1207 1071 1163 819Q1152
750 1122 653Q1032 377 889 219Q683 5 448 0Q441 0 438 0H422Q299 0 215 68ZM553 1141Q387 995 281 709Q242 614 221 510Q196 356 238 260Q272 179 348 145Q501 92 655 180Q774 241 870 387Q945 502 999 672Q1023 740 1038 819Q1075 1034 1004 1151Q945 1251 848
1251Q818 1251 793 1241Q764 1232 741 1249Q668 1237 553 1141Z" />
<glyph unicode="1" glyph-name="one" horiz-adv-x="505" d="M158 0H154Q129 2 114 22T104 68Q164 342 289 741Q381 1035 442 1206L438 1204Q355 1151 289 1085Q269 1064 243 1062T201 1075Q182 1091 184 1118T207 1163Q322 1280 469 1354Q513 1379 541 1386Q576
1400 602 1376Q623 1352 612 1315Q526 1109 410 725Q276 292 229 61Q225 36 204 18T158 0Z" />
<glyph unicode="2" glyph-name="two" horiz-adv-x="1171" d="M70 27Q53 54 72 88Q105 140 148 188T223 266T303 331T366 375T418 408Q455 430 541 480T689 568T803 645Q926 734 995 842Q1028 893 1048 948T1076 1061T1053 1166T954 1231Q906 1243 854 1243Q747
1243 662 1204Q568 1166 500 1092Q454 1031 438 979Q428 953 404 938T354 928Q331 933 321 953T317 999Q341 1081 410 1163Q473 1235 551 1278Q699 1367 874 1370Q946 1367 1007 1347T1105 1297T1165 1238T1196 1182Q1220 1118 1204 1030Q1185 916 1098 786Q1025
675 930 598Q832 518 735 459Q692 433 608 386T464 301T354 225Q298 187 252 131Q472 143 672 143Q844 143 918 135Q944 133 957 114T965 70Q958 44 936 27T889 12Q778 18 649 18Q373 18 121 0H115Q84 0 70 27Z" />
<glyph unicode="3" glyph-name="three" horiz-adv-x="1163" d="M43 59Q46 85 66 105T113 127Q406 140 631 225Q707 260 765 298T853 364T903 423T927 468T934 498Q949 571 897 623Q845 680 748 680Q727 679 705 675T657 665T618 657Q593 650 574 663T553 700Q550
724 564 745T604 776Q752 803 891 874Q967 921 1007 971T1049 1063T1031 1143T971 1206T883 1244T786 1253Q602 1253 414 1114Q391 1098 366 1100T326 1122Q313 1142 320 1168T352 1212Q579 1378 809 1378Q944 1378 1036 1325Q1129 1271 1165 1182Q1193 1123 1180
1049Q1164 978 1126 926Q1085 868 1016 815Q966 782 934 764Q1023 705 1048 639T1059 498Q1043 407 977 326Q908 241 791 172Q537 26 100 0H94Q71 0 56 17T43 59Z" />
<glyph unicode="4" glyph-name="four" horiz-adv-x="1060" d="M641 0H637Q611 1 598 21T590 68Q665 364 727 584H719Q579 584 477 567T308 534T182 518Q153 518 133 530Q40 589 141 770Q192 854 238 915Q351 1064 483 1206Q561 1287 631 1346Q652 1364 678 1364T721
1346Q735 1327 731 1301T705 1255Q675 1234 623 1182Q612 1171 576 1134T520 1075Q431 977 317 829Q224 693 225 654Q225 645 233 647Q465 709 741 709H764Q879 1086 999 1333Q1013 1359 1037 1370T1087 1376Q1110 1367 1117 1344T1112 1296Q1001 1072 889 705L991
696Q1016 694 1028 674T1034 627Q1026 601 1005 585T958 571L850 578Q788 363 713 57Q707 33 687 17T641 0Z" />
<glyph unicode="5" glyph-name="five" horiz-adv-x="1105" d="M43 53Q44 79 63 99T109 125Q388 165 582 260Q740 338 823 442Q862 494 872 551Q875 584 875 604T866 641T850 665T833 681Q830 683 829 684Q770 745 637 745Q522 745 410 702Q357 684 315 684Q277
684 250 702Q214 730 207 781T210 875T238 952Q284 1063 330 1150T400 1271T430 1309Q515 1358 641 1376Q742 1389 887 1389Q1017 1389 1120 1382Q1145 1380 1158 1361T1165 1315Q1161 1289 1139 1272T1090 1257Q916 1266 864 1266Q789 1266 690 1257Q614 1252
545 1233Q534 1231 519 1225L504 1219L430 1081Q383 995 358 926Q310 810 353 811Q355 811 385 819Q531 872 659 872Q791 872 874 819Q964 769 991 680Q1032 528 920 377Q852 290 743 219Q499 57 106 0H98Q74 0 58 14T43 53Z" />
<glyph unicode="6" glyph-name="six" horiz-adv-x="933" d="M399 0Q275 0 193 59Q112 119 82 211T65 393T117 584T197 753T279 879Q478 1145 821 1362Q846 1377 870 1373T905 1348Q917 1324 909 1299T877 1260Q555 1058 377 815Q243 633 203 455Q182 352 197 291Q209
237 242 199Q304 125 420 125Q529 125 627 193Q739 272 801 418Q814 450 821 492Q836 573 809 645Q784 712 723 745Q682 768 627 768Q555 768 463 727Q438 718 416 726T387 758Q380 783 392 807T432 844Q538 893 647 893Q744 893 802 858T901 768Q974 646 948 492Q901
250 692 96Q550 0 399 0Z" />
<glyph unicode="7" glyph-name="seven" horiz-adv-x="997" d="M219 0H205Q180 6 170 28T170 76Q313 424 510 739Q708 1043 911 1249Q817 1253 760 1253Q486 1253 258 1206Q235 1201 216 1216T195 1255Q195 1281 213 1304T256 1331Q498 1378 782 1378Q899 1378
1071 1366Q1112 1363 1118 1327Q1125 1287 1092 1260Q845 1045 618 686Q412 364 289 49Q268 0 219 0Z" />
<glyph unicode="8" glyph-name="eight" horiz-adv-x="1026" d="M178 41Q95 91 72 168Q55 225 68 283Q78 344 123 422Q176 504 231 559Q319 646 424 715Q358 746 315 805Q246 896 268 1016Q291 1146 408 1243Q523 1344 700 1368Q770 1376 797 1376Q898 1376 977
1339Q1050 1300 1077 1229Q1095 1184 1083 1122Q1073 1062 1038 1010Q1013 966 948 897Q851 810 723 739Q883 666 924 523T870 229Q725 17 440 0H385Q258 0 178 41ZM375 535Q296 480 249 400T195 283Q161 156 277 116Q373 83 514 119Q602 142 655 180Q710 219 743
263T787 346T795 422T783 484T760 528Q704 617 569 662Q469 611 375 535ZM776 1249H774Q738 1249 698 1243Q561 1226 479 1155Q407 1092 395 1016Q382 947 422 889Q476 821 580 797L588 801Q737 873 815 936Q891 994 932 1059Q953 1097 954 1131T947 1182T928 1206Q878
1249 776 1249Z" />
<glyph unicode="9" glyph-name="nine" horiz-adv-x="976" d="M680 1380Q804 1380 887 1321Q956 1270 988 1198T1018 1048T995 892T938 736T867 604T801 502Q601 235 258 18Q233 3 209 7T174 33Q162 56 170 81T203 121Q524 322 702 565Q835 745 877 926Q896 1028
883 1090Q870 1142 838 1182Q777 1255 659 1255Q550 1255 453 1188Q343 1111 279 963Q265 931 258 889Q243 807 270 735Q297 667 356 635Q400 612 453 612Q521 612 616 653Q641 663 663 654T692 623Q699 598 686 574T647 537Q538 487 432 487Q271 487 178 612Q106
731 131 889Q145 961 174 1026T240 1139T313 1222T387 1284Q527 1380 680 1380Z" />
<glyph unicode=":" glyph-name="colon" horiz-adv-x="387" d="M125 94Q130 132 160 160T229 188Q268 188 292 161T311 94Q305 56 273 28T203 0T142 28T125 94ZM240 770Q245 808 275 836T344 864T406 836T426 770Q420 732 388 704T317 676Q279 676 256 704T240 770Z" />
<glyph unicode=";" glyph-name="semicolon" horiz-adv-x="387" d="M240 770Q245 808 275 836T344 864T406 836T426 770Q420 732 388 704T317 676Q279 676 256 704T240 770ZM236 197Q306 190 321 143T285 10Q284 8 273 -8T258 -29T243 -47T223 -69T201 -88Q186
-96 170 -96Q148 -96 137 -80Q127 -65 132 -47T154 -16Q177 3 184 12Q156 18 141 37Q119 72 127 107T168 170T236 197Z" />
<glyph unicode="&lt;" glyph-name="less" horiz-adv-x="737" d="M629 330Q645 312 644 288T625 246Q607 225 578 225Q552 225 545 238L123 610Q99 626 101 655T139 707L692 1079Q714 1095 736 1093T770 1071Q781 1051 774 1027T745 989L256 657L629 330Z" />
<glyph unicode="=" glyph-name="equal" horiz-adv-x="1017" d="M989 879Q1012 879 1026 862T1036 819Q1032 796 1012 779T969 762H215Q190 762 177 779T168 819Q173 844 192 861T236 879H989ZM926 520Q949 520 963 504T973 463Q970 439 951 423T907 406H154Q129
406 115 422T104 463Q109 488 128 504T172 520H926Z" />
<glyph unicode="&gt;" glyph-name="greater" horiz-adv-x="759" d="M252 995Q235 1013 236 1037T256 1079Q273 1100 303 1100Q329 1100 336 1087L758 715Q773 703 778 687T775 653T741 618L188 246Q167 230 145 232T111 254Q100 274 106 298T135 336L625 668L252 995Z" />
<glyph unicode="?" glyph-name="question" horiz-adv-x="921" d="M279 258Q258 270 254 294T266 344Q361 486 500 612Q524 635 567 674T640 743T694 799Q748 862 782 934Q801 969 809 1018T807 1108Q795 1146 768 1174Q704 1229 608 1229Q534 1229 459 1194Q377
1150 330 1087Q289 1035 268 971Q260 944 236 929T188 920Q163 923 151 943T147 991Q180 1078 231 1149Q285 1218 352 1266Q486 1354 631 1354Q740 1354 815 1307Q898 1257 930 1163Q950 1092 936 1018Q927 976 911 935T878 860T835 793T791 735T746 684T706 645T671
613T647 592Q638 584 608 556T566 517T528 480T486 436T448 393T406 343T369 289Q344 252 305 252Q291 252 279 258ZM211 0H205Q178 3 164 23T160 70L170 111Q178 137 201 153T250 166Q275 165 288 145T295 98L281 57Q274 32 255 16T211 0Z" />
<glyph unicode="@" glyph-name="at" horiz-adv-x="1902" d="M1370 6Q1349 7 1328 12T1281 30T1236 64T1202 118T1187 197T1200 305Q1165 255 1096 184Q1000 91 901 47T715 2H705Q589 5 528 94Q468 180 494 317Q512 417 573 528Q694 734 889 836Q1038 909 1190
909Q1265 909 1303 895Q1326 887 1332 865T1325 817Q1313 794 1289 783T1243 780Q1225 791 1169 791Q1047 791 932 731Q775 649 676 481Q627 395 612 317Q595 224 633 172Q666 126 729 123H735Q870 123 1018 262Q1157 397 1268 639Q1303 764 1354 858Q1366 880
1388 891T1432 897Q1454 891 1464 871T1466 827Q1412 682 1382 614Q1357 531 1339 428Q1325 357 1317 260Q1306 117 1382 106Q1450 112 1510 162T1612 288T1680 438T1722 586Q1745 710 1716 814T1615 988T1439 1096T1206 1135Q870 1135 618 930Q481 821 384 668T262
350Q235 157 288 8T467 -224T776 -307Q1027 -307 1278 -203Q1463 -126 1593 -6Q1615 12 1640 12T1681 -4Q1697 -23 1694 -47T1669 -90Q1508 -240 1307 -315Q1190 -365 1070 -390T791 -422Q745 -423 696 -419T591 -402T483 -368T377 -314T282 -238T204 -137T149
-7T125 154T137 350Q166 535 280 715T553 1020Q692 1134 865 1197T1229 1260Q1381 1260 1507 1213T1718 1081T1839 867T1849 586Q1833 503 1806 423T1737 263T1642 125T1519 34T1370 6Z" />
<glyph unicode="A" glyph-name="A" horiz-adv-x="1214" d="M1339 797Q1364 795 1381 777T1397 735Q1395 710 1378 694T1335 678H1288Q1201 678 1118 670Q1063 346 969 43Q965 23 949 12T913 0Q901 0 895 2Q872 10 861 31T856 78Q936 334 995 655Q648 610 385 504Q284
270 213 41Q205 18 184 7T137 2Q114 10 103 32T98 78Q164 278 223 426L158 383Q144 373 123 373Q92 373 74 397Q60 417 64 441T88 479Q173 541 295 594Q488 1025 688 1235Q836 1380 973 1380Q1030 1380 1069 1348Q1101 1323 1124 1270Q1157 1194 1157 1053Q1157
948 1137 791Q1217 797 1288 797H1339ZM455 655Q719 745 1016 778Q1038 937 1038 1053Q1038 1143 1024 1192Q1014 1240 993 1255Q985 1262 973 1262Q885 1262 774 1151Q669 1043 553 842Q491 729 455 655Z" />
<glyph unicode="B" glyph-name="B" horiz-adv-x="1130" d="M1151 1139Q1151 952 946 809L938 803Q1031 782 1090 715T1149 551Q1149 501 1135 453Q1069 219 797 90Q696 45 594 23T420 0H395Q370 3 354 22T340 66Q341 90 360 106T403 121Q410 119 420 119Q477 119
568 139T745 199Q971 304 1020 485Q1028 518 1028 551Q1028 622 977 657Q920 698 815 698Q748 698 662 676Q638 671 617 683T590 719Q584 744 596 765T631 793Q775 834 879 907Q1027 1014 1030 1141V1147Q1030 1221 977 1262Q922 1300 813 1300Q748 1304 649 1280Q668
1265 671 1242T662 1200Q577 1077 493 859T354 435T266 49Q261 27 245 14T207 0H197Q172 4 158 24T147 70Q183 258 236 459T375 885T551 1249Q354 1173 225 1047Q208 1028 183 1028T141 1047Q124 1064 124 1089T141 1130Q279 1265 463 1342T813 1421Q955 1421 1047
1358Q1095 1325 1123 1270T1151 1147V1139Z" />
<glyph unicode="C" glyph-name="C" horiz-adv-x="1058" d="M461 0H449Q275 3 186 111Q102 206 102 365Q104 569 229 802T557 1208Q759 1375 909 1378Q1012 1378 1069 1305Q1120 1239 1120 1139Q1120 976 1001 819Q986 801 962 798T918 809T895 848T907 893Q953
952 977 1018T1001 1139Q1001 1196 975 1231Q953 1256 909 1260Q865 1260 794 1226T633 1116Q452 966 337 750T223 365Q223 249 276 188Q335 124 451 119H461Q610 119 772 236Q895 325 991 455Q1005 475 1030 478T1075 467Q1095 454 1098 429T1087 385Q979 240
842 139Q651 0 461 0Z" />
<glyph unicode="D" glyph-name="D" horiz-adv-x="1161" d="M1157 1298Q1264 1181 1264 985Q1264 783 1151 549Q1020 275 766 119Q669 60 577 31T416 0Q401 0 395 2Q370 3 354 22T340 66Q342 90 361 106T406 121H416Q462 119 541 144T702 221Q922 353 1042 602Q1145
813 1145 985Q1145 1136 1069 1217Q990 1302 831 1305Q777 1305 690 1288Q666 1285 649 1280Q668 1267 672 1243T662 1200Q539 1020 429 679T266 49Q261 27 245 14T207 0H197Q172 4 159 25T150 70Q204 370 311 707T551 1249Q365 1180 225 1047Q209 1030 184 1030T141
1047Q124 1065 124 1089T141 1130Q249 1236 387 1307T668 1407Q759 1423 831 1423Q1041 1423 1157 1298Z" />
<glyph unicode="E" glyph-name="E" horiz-adv-x="1075" d="M1180 1415Q1204 1415 1221 1398T1239 1356T1222 1314T1180 1296Q905 1296 672 1245Q672 1224 662 1208Q566 1069 461 784Q710 861 991 872Q1016 872 1035 856T1055 815Q1055 790 1038 772T997 754Q862
749 703 720T414 641Q326 374 279 121Q287 119 305 119Q437 119 621 154T946 256Q968 266 991 257T1024 225Q1035 204 1027 181T995 147Q838 74 645 37T305 0Q230 0 193 10Q170 16 157 36T147 80Q199 346 266 567Q246 555 238 547Q220 537 203 537Q173 537 154
559Q139 579 142 604T166 643Q232 691 315 729Q421 1037 518 1204Q332 1145 223 1053Q207 1038 184 1038Q154 1038 139 1059Q123 1077 125 1102T145 1143Q305 1277 575 1346T1180 1415Z" />
<glyph unicode="F" glyph-name="F" horiz-adv-x="1011" d="M1180 1415Q1204 1415 1221 1398T1239 1356T1222 1314T1180 1296Q905 1296 672 1245Q672 1222 662 1208Q564 1063 461 784Q695 856 991 872Q1016 872 1035 856T1055 815Q1055 790 1038 772T995 752Q863
749 704 720T414 641Q331 389 279 109Q267 49 250 25T193 0Q170 6 157 25T147 68Q203 354 266 567Q246 555 238 547Q222 535 203 535Q175 535 154 559Q140 579 143 603T166 643Q232 691 315 729Q411 1016 518 1204Q330 1144 223 1051Q203 1036 184 1036Q157 1036
137 1059Q122 1077 124 1101T145 1143Q305 1276 575 1345T1180 1415Z" />
<glyph unicode="G" glyph-name="G" horiz-adv-x="1077" d="M1073 465Q1106 440 1090 387Q1039 199 963 51Q846 -170 674 -291Q533 -389 358 -416H350Q327 -416 311 -401T291 -365Q286 -339 301 -319T342 -295Q484 -275 604 -193Q704 -123 788 -4Q838 69 885 172L840
135Q644 -4 459 -4H446Q277 2 184 106Q102 201 102 360Q104 565 228 799T555 1204T909 1374Q1010 1377 1069 1300Q1118 1237 1118 1137Q1118 974 999 817Q984 798 960 795T915 805Q896 820 893 845T905 889Q999 1012 999 1137Q999 1194 975 1227Q953 1255 909 1255Q800
1255 633 1112Q451 962 335 746T221 360Q221 248 274 184Q332 120 449 117H459Q612 117 770 233Q895 324 993 457Q1009 474 1032 476T1073 465Z" />
<glyph unicode="H" glyph-name="H" horiz-adv-x="1249" d="M1278 1141Q1215 1027 1153 881L1139 848Q1206 848 1237 846Q1246 846 1263 845T1290 844Q1315 841 1331 822T1343 778Q1342 753 1323 738T1278 725Q1271 725 1255 726T1231 727Q1167 730 1094 727Q986
434 911 49Q908 28 891 14T852 0H842Q817 5 803 26T793 72Q859 419 961 715Q671 677 399 580Q322 328 268 49Q265 28 248 14T209 0H199Q174 5 160 26T150 72Q190 294 256 522L195 489Q177 479 160 479Q129 482 113 508Q99 528 104 552T131 590Q191 634 305 682Q399
962 528 1200Q587 1306 639 1374Q654 1394 678 1398T723 1386Q743 1371 747 1346T735 1300Q679 1223 633 1141Q570 1027 508 881L453 733Q725 817 1006 840Q1082 1036 1171 1200Q1219 1287 1282 1374Q1298 1394 1322 1398T1368 1386Q1388 1371 1391 1346T1378 1300Q1331
1235 1278 1141Z" />
<glyph unicode="I" glyph-name="I" horiz-adv-x="532" d="M786 1389Q811 1385 826 1365T838 1321Q835 1295 815 1280T770 1268Q750 1272 727 1272Q615 1113 516 877Q375 540 291 129Q316 129 340 141Q362 154 386 147T422 119Q434 97 428 73T399 37Q321 0 186
0Q144 0 94 4Q69 9 55 28T43 74Q46 98 66 113T111 125Q135 121 166 121Q254 572 403 924Q486 1115 575 1262Q564 1260 545 1252T512 1243Q476 1243 461 1274Q447 1296 453 1319T483 1356Q501 1366 532 1376Q565 1384 586 1386Q635 1393 694 1393Q738 1393 786 1389Z"
/>
<glyph unicode="J" glyph-name="J" horiz-adv-x="792" d="M965 1393Q989 1390 1004 1370T1016 1325Q1013 1300 993 1286T948 1274Q946 1274 938 1275T924 1276Q908 1183 870 1018Q820 815 782 711Q721 534 672 426Q605 276 532 184Q470 106 410 68Q307 0 195 0H193Q167
0 111 8Q86 12 72 33T63 80T88 118T133 127Q164 121 193 121Q278 124 342 168T467 301Q552 426 670 750Q708 864 752 1047Q771 1123 801 1274Q790 1273 752 1261T690 1249Q655 1249 639 1278Q626 1301 632 1326T662 1362Q740 1399 872 1399Q928 1399 965 1393Z"
/>
<glyph unicode="K" glyph-name="K" horiz-adv-x="1019" d="M1200 1233Q1207 1208 1197 1186T1163 1155Q1127 1143 1024 1094Q911 1035 842 993Q627 870 444 733L401 700Q442 617 459 590Q501 513 567 426Q705 237 879 104Q899 90 902 65T891 20Q873 -4 844 -4Q822
-4 807 8Q670 109 543 262Q430 395 354 528L332 569Q255 323 203 49Q199 27 182 14T143 0Q114 0 96 21T84 72Q133 327 195 539Q156 539 142 575T152 639Q200 692 262 743Q303 857 332 922Q449 1198 573 1364Q589 1384 613 1388T657 1376Q677 1361 681 1337T670
1292Q559 1147 446 885L504 926Q724 1074 911 1171Q1026 1231 1122 1268Q1145 1277 1168 1267T1200 1233Z" />
<glyph unicode="L" glyph-name="L" horiz-adv-x="1044" d="M158 10Q130 16 117 33Q101 54 104 80Q196 560 352 930Q470 1209 594 1372Q609 1392 634 1396T680 1384Q700 1369 703 1345T690 1300Q574 1142 465 883Q324 554 238 123Q266 121 332 121Q476 121 631
145Q805 177 920 227Q941 238 964 229T997 197Q1008 174 999 151T967 117Q831 57 651 27Q495 0 332 0Q243 0 158 10Z" />
<glyph unicode="M" glyph-name="M" horiz-adv-x="1345" d="M1073 0H1067Q1041 3 1029 24T1024 70L1192 666Q1279 984 1307 1139Q1319 1210 1319 1231Q1270 1185 1196 1092Q1029 881 897 635Q792 441 750 297Q742 272 721 257T674 244Q651 244 637 261T625 303Q645
451 672 684Q695 897 698 1042Q710 1270 686 1257Q654 1233 627 1200Q568 1127 508 1004Q358 698 188 57Q182 32 160 15T113 0Q87 1 73 20T63 66Q161 420 248 675T438 1122Q487 1212 535 1268Q574 1313 610 1342T667 1381T709 1394T736 1396T748 1391Q764 1382
776 1367T797 1329T812 1286T821 1233T826 1180T828 1124T827 1074T825 1024T823 985Q813 845 799 702Q802 707 811 722T825 748Q948 962 1075 1126Q1150 1225 1227 1303Q1275 1347 1300 1364Q1327 1381 1343 1386Q1394 1400 1419 1374Q1435 1360 1438 1346Q1448
1320 1448 1288Q1448 1233 1432 1139Q1402 974 1315 653Q1245 393 1145 55Q1139 32 1118 16T1073 0Z" />
<glyph unicode="N" glyph-name="N" horiz-adv-x="1181" d="M793 2Q744 5 713 39T670 123Q649 200 649 322Q646 455 670 846Q680 991 684 1151Q684 1193 680 1235L647 1198Q597 1136 522 993Q382 704 207 59Q201 33 179 17T131 2Q106 4 92 23T84 68Q256 733 459
1122Q500 1201 551 1262Q567 1282 584 1300T628 1342T678 1377T728 1390T772 1372Q800 1349 807 1256T809 1075Q805 985 793 786T778 547Q771 346 782 240Q796 -13 940 373Q946 389 948 393Q1082 718 1260 1341Q1269 1367 1291 1383T1337 1397Q1364 1392 1377 1372T1382
1325Q1277 966 1186 696Q1095 429 1024 274Q996 213 969 165T922 91T885 45T858 21T844 12Q823 2 793 2Z" />
<glyph unicode="O" glyph-name="O" horiz-adv-x="1146" d="M242 78Q142 156 106 295Q81 387 84 492T117 705Q169 914 295 1081Q422 1250 582 1329Q694 1386 807 1386Q903 1386 981 1346Q1055 1307 1110 1233Q1215 1085 1206 866Q1203 769 1180 680Q1128 462 1008
293Q891 126 725 51Q611 0 489 0Q341 0 242 78ZM635 1223Q548 1181 465 1098Q385 1017 324 909T233 680Q208 573 205 492Q199 362 244 266Q285 183 367 145Q418 121 494 121Q590 121 676 160Q767 200 840 276Q999 440 1063 705Q1085 795 1085 866Q1092 998 1042
1102Q1004 1193 922 1237Q866 1266 803 1266Q719 1266 635 1223Z" />
<glyph unicode="P" glyph-name="P" horiz-adv-x="1044" d="M1196 1192Q1229 1124 1229 1053Q1229 966 1184 887Q1140 802 1055 735Q870 591 532 549H524Q503 549 486 564T465 602Q462 627 477 647T518 670Q747 695 899 778Q1030 848 1077 944Q1108 999 1108 1053Q1108
1097 1087 1141Q1067 1184 1030 1214Q942 1290 799 1290Q739 1290 664 1274Q678 1258 679 1238T668 1200Q545 1020 435 679T272 49Q269 28 253 14T215 0H203Q179 4 165 25T156 70Q211 369 316 701T551 1239Q550 1238 547 1237T541 1235Q390 1174 223 1042Q203 1026
179 1028T137 1051Q122 1070 125 1095T147 1137Q329 1279 496 1348Q654 1411 799 1411Q937 1411 1044 1352Q1147 1295 1196 1192Z" />
<glyph unicode="Q" glyph-name="Q" horiz-adv-x="1144" d="M1204 870Q1201 776 1178 684Q1121 456 1006 297Q884 126 723 55Q657 23 582 10Q620 -41 676 -82Q769 -147 905 -174Q930 -179 944 -199T952 -244Q947 -265 930 -279T891 -293H879Q715 -260 602 -182Q503
-110 440 4Q325 16 240 82Q142 156 102 299Q78 388 84 494Q87 597 115 709Q167 917 295 1085Q417 1253 582 1333Q692 1389 805 1389Q900 1389 977 1348Q1052 1310 1108 1235Q1210 1097 1204 870ZM1061 709Q1080 797 1083 870Q1089 1001 1042 1104Q1000 1199 920
1241Q870 1268 801 1268Q722 1268 631 1225Q542 1179 465 1102Q292 929 231 684Q208 584 205 494Q199 360 244 270Q287 182 365 150Q419 123 492 123Q585 123 676 164Q764 204 838 281Q993 436 1061 709Z" />
<glyph unicode="R" glyph-name="R" horiz-adv-x="1085" d="M1196 1194Q1229 1126 1229 1055Q1229 966 1184 887Q1140 802 1055 735Q886 607 614 561Q667 470 733 389Q817 283 930 188Q993 133 1040 106Q1061 94 1067 70T1061 25Q1043 -6 1010 -6Q990 -6 979 2Q925
34 850 96Q777 159 709 233Q540 417 469 586Q459 616 473 639Q490 667 518 670Q747 695 899 778Q1030 848 1077 944Q1108 999 1108 1055Q1108 1097 1087 1141Q1070 1180 1030 1217Q940 1290 799 1290Q727 1290 664 1274Q678 1258 679 1238T668 1200Q545 1020 435
680T272 49Q269 28 253 14T215 0Q207 0 203 2Q178 6 165 26T156 72Q211 370 316 702T551 1239Q550 1238 547 1237T541 1235Q383 1172 223 1042Q203 1027 179 1029T137 1051Q122 1070 125 1095T147 1137Q321 1276 496 1348Q654 1411 799 1411Q943 1411 1044 1352Q1146
1295 1196 1194Z" />
<glyph unicode="S" glyph-name="S" horiz-adv-x="1107" d="M330 45Q215 85 135 143Q84 179 53 221Q38 241 42 265T66 305Q87 319 111 316T152 291Q184 244 305 184Q449 123 588 123Q645 123 694 131Q790 147 856 207Q918 263 936 338Q942 368 942 395Q942 442
926 479Q908 522 872 563Q792 652 631 723Q522 769 442 838Q366 907 338 979Q317 1037 317 1079Q317 1174 385 1255Q431 1307 489 1339Q621 1413 803 1413Q935 1413 1083 1370Q1108 1364 1120 1343T1124 1296Q1118 1272 1096 1260T1051 1255Q918 1292 803 1292Q692
1292 600 1257Q523 1229 477 1178Q400 1071 489 961Q557 886 680 834Q822 771 907 696Q999 620 1038 524Q1063 464 1063 395Q1063 357 1053 309Q1022 194 938 119Q850 38 715 12Q661 2 588 2Q451 2 330 45Z" />
<glyph unicode="T" glyph-name="T" horiz-adv-x="796" d="M1057 1380Q1083 1379 1095 1359T1102 1311Q1096 1285 1073 1268T1024 1253Q853 1268 729 1268Q659 1268 623 1266Q642 1256 648 1236T645 1194Q551 963 463 678Q362 343 315 90L311 63Q306 38 285 19T238
0H236Q212 0 196 18T184 61L188 90Q225 300 340 694Q449 1036 530 1223Q542 1250 563 1262Q349 1250 195 1206Q188 1204 178 1204Q157 1204 143 1217T125 1251Q123 1276 139 1298T182 1327Q417 1391 750 1391Q903 1391 1057 1380Z" />
<glyph unicode="U" glyph-name="U" horiz-adv-x="1044" d="M807 231Q694 95 575 39Q508 3 424 0H412Q334 0 279 29Q224 57 190 117Q169 157 160 201Q130 345 164 563Q182 721 265 1003T391 1358Q406 1379 429 1390T473 1395Q495 1387 504 1368T506 1325Q344 824
297 563Q283 478 277 430T275 312T303 197Q317 166 342 150Q376 125 434 125H442Q496 128 540 151T637 219Q734 305 836 483Q926 644 1008 870L1145 1339Q1152 1365 1175 1381T1223 1395Q1247 1394 1260 1374T1268 1329Q1252 1256 1217 1138T1155 936L1128 854Q1062
669 988 517T807 231Z" />
<glyph unicode="V" glyph-name="V" horiz-adv-x="985" d="M1110 1389Q1222 1340 1210 1200Q1203 1088 1171 997Q1139 891 1075 766Q958 526 791 305Q682 165 590 82Q570 64 544 47T481 14T409 -1T340 18Q309 40 289 70Q248 128 225 236Q197 381 211 584Q248 1100
379 1352Q390 1375 413 1387T459 1393Q482 1388 492 1368T496 1323Q413 1077 369 829Q330 618 334 426Q340 277 377 188Q399 142 420 129Q437 120 463 134T522 181T575 237T623 294Q633 306 637 311Q801 508 938 766Q1031 943 1067 1071Q1087 1141 1087 1200Q1087
1270 1018 1284Q990 1289 973 1305T956 1346Q956 1372 974 1389T1018 1407Q1066 1407 1110 1389Z" />
<glyph unicode="W" glyph-name="W" horiz-adv-x="1505" d="M1683 1395Q1708 1394 1721 1374T1729 1329Q1713 1256 1678 1138T1616 936L1589 854Q1523 671 1449 518T1268 231Q1155 96 1036 39Q870 -42 774 45Q719 96 719 252Q663 159 596 92Q536 35 467 12Q430
0 393 0Q324 0 274 70Q235 128 217 229Q192 372 209 578Q240 957 387 1360Q396 1382 421 1391T469 1393Q491 1386 499 1367T500 1325Q405 1026 365 795Q327 577 330 410Q333 260 367 184Q397 105 465 137Q495 152 528 188Q611 275 707 487Q782 659 852 874Q861
900 884 915T934 928Q959 925 971 904T975 856Q893 603 864 430Q843 313 846 242Q849 176 868 147Q891 102 999 150Q1050 176 1098 219Q1198 308 1296 483Q1388 645 1468 870L1606 1339Q1613 1365 1636 1381T1683 1395Z" />
<glyph unicode="X" glyph-name="X" horiz-adv-x="1277" d="M1331 1368Q1342 1346 1335 1323T1307 1286Q1185 1216 1063 1118Q926 1008 799 879Q801 874 811 855T827 825Q1042 439 1180 82Q1189 59 1179 36T1145 4Q1133 0 1124 0Q1083 0 1067 39Q958 321 770 676Q749
721 711 786Q393 446 176 33Q157 0 123 0Q106 0 94 6Q71 19 64 42T70 88Q298 526 649 897Q544 1081 455 1208Q413 1267 389 1292Q374 1312 375 1337T395 1378Q415 1394 440 1393T481 1372Q500 1350 553 1278Q590 1228 637 1151Q680 1088 735 987Q875 1124 987 1212Q1141
1334 1247 1391Q1270 1403 1294 1397T1331 1368Z" />
<glyph unicode="Y" glyph-name="Y" horiz-adv-x="874" d="M1159 1386Q1178 1369 1180 1345T1165 1300Q997 1101 834 838Q584 446 438 39Q422 0 381 0Q367 0 360 2Q336 11 326 34T324 80Q416 335 555 600Q441 692 342 840Q249 979 188 1147Q156 1241 145 1323Q141
1347 156 1367T197 1391Q221 1395 241 1380T264 1339Q274 1271 303 1188Q335 1095 387 1001Q481 820 614 709Q687 835 731 901Q898 1171 1073 1378Q1090 1398 1115 1400T1159 1386Z" />
<glyph unicode="Z" glyph-name="Z" horiz-adv-x="1236" d="M1337 1319Q1337 1297 1324 1278T1288 1251Q1241 1234 1186 1196Q1135 1163 1055 1096Q850 920 622 657T240 168L225 147Q391 174 567 174Q710 174 895 161T1167 123Q1190 117 1199 95T1198 47Q1189 26
1170 13T1128 0Q1118 0 1114 2Q1035 23 856 36T545 49Q316 49 109 2Q70 -4 51 23Q33 51 51 86Q93 164 172 276Q229 355 354 516Q365 530 417 594T510 707T633 844T807 1022Q949 1164 1075 1260Q1059 1260 1023 1261T967 1262Q668 1262 434 1206Q408 1200 389 1214T367
1253Q365 1278 382 1300T426 1329Q676 1386 989 1386Q1150 1386 1292 1372Q1314 1369 1326 1355T1337 1319Z" />
<glyph unicode="[" glyph-name="bracketleft" horiz-adv-x="518" d="M653 1425H524L209 -233H338Q363 -233 376 -249T385 -291Q382 -316 363 -332T319 -348H133Q105 -348 94 -332Q81 -316 84 -291L420 1483Q424 1508 442 1522Q462 1540 487 1540H674Q699 1540
712 1524T721 1483Q716 1458 697 1442T653 1425Z" />
<glyph unicode="\" glyph-name="backslash" horiz-adv-x="847" d="M117 1380Q140 1391 162 1383T193 1354L760 80Q769 60 760 38T731 4Q719 0 702 0Q667 0 653 33L88 1305Q78 1328 86 1348T117 1380Z" />
<glyph unicode="]" glyph-name="bracketright" horiz-adv-x="641" d="M-12 -233H117L432 1425H303Q278 1425 265 1441T256 1483Q259 1508 278 1524T322 1540H508Q536 1540 547 1524Q560 1506 557 1483L221 -291Q217 -318 199 -330Q180 -348 154 -348H-33Q-58 -348
-71 -332T-80 -291Q-75 -266 -56 -250T-12 -233Z" />
<glyph unicode="^" glyph-name="asciicircum" horiz-adv-x="806" d="M788 831Q795 813 785 790T752 754Q732 745 723 745Q691 745 678 774L516 1165L219 774Q203 752 179 747T135 754Q115 766 114 789T129 831L492 1307Q514 1335 547 1335H549Q583 1335 592 1307L788
831Z" />
<glyph unicode="_" glyph-name="underscore" horiz-adv-x="976" d="M948 -233Q972 -233 986 -250T995 -291Q992 -316 974 -332T930 -348H31Q6 -348 -8 -332T-18 -291Q-13 -267 6 -250T49 -233H948Z" />
<glyph unicode="`" glyph-name="grave" horiz-adv-x="278" d="M236 1315L313 1145Q323 1123 314 1099T281 1063Q269 1055 252 1055Q219 1055 207 1081L129 1253Q118 1272 128 1295T162 1331Q182 1345 204 1340T236 1315Z" />
<glyph unicode="a" glyph-name="a" horiz-adv-x="1046" d="M846 6Q832 18 822 37T806 83T797 132T793 186T793 235T795 279T797 307Q759 253 692 186Q504 4 311 4H301Q186 7 125 96Q66 181 90 319Q108 416 170 530Q288 734 485 838Q635 911 786 911Q861 911 899
897Q922 890 929 867T922 819Q909 796 885 785T840 782Q820 793 766 793Q643 793 528 733Q371 651 272 483Q221 392 209 319Q192 226 229 174Q263 128 326 125H332Q390 125 463 158T614 264Q753 399 864 641Q903 772 950 860Q963 882 984 893T1028 899Q1050 893
1060 873T1063 829Q993 647 979 616Q950 522 936 430Q923 368 913 262Q906 164 926 111Q926 110 929 103T933 94T936 84T938 73T939 63T939 52T936 42T930 31Q910 0 872 0Q854 0 846 6Z" />
<glyph unicode="b" glyph-name="b" horiz-adv-x="1040" d="M383 0H381Q312 0 252 8Q227 13 216 33T211 80Q219 105 243 120T293 133Q352 127 401 127Q627 127 776 262Q835 318 874 392T926 539Q943 632 918 700Q879 788 762 788Q690 788 608 749T449 629Q268 441
199 115Q196 91 188 68Q183 42 161 24T113 6Q88 6 74 25T63 70L74 123Q155 502 242 774Q342 1103 422 1251Q468 1333 508 1358Q551 1376 576 1360T600 1311Q597 1290 566 1254T516 1178Q471 1086 410 905Q399 874 388 838T363 755T340 680L362 705Q459 807 569
859T784 911Q870 911 938 873T1034 764Q1075 676 1053 539Q1036 445 986 350T854 180Q767 96 647 48T383 0Z" />
<glyph unicode="c" glyph-name="c" horiz-adv-x="915" d="M156 76Q110 116 93 181T90 326Q105 419 168 535Q268 719 428 819Q566 911 713 911Q793 911 846 881Q908 848 924 778Q927 753 913 730T872 698Q846 689 825 699T801 735Q792 757 770 772Q740 791 692
791Q590 791 481 721Q354 638 274 494Q221 389 213 326Q197 223 248 172Q303 123 410 123Q516 123 633 172T829 307Q848 326 875 329T920 317Q936 303 936 277T915 229Q816 124 666 59Q525 0 389 0Q241 0 156 76Z" />
<glyph unicode="d" glyph-name="d" horiz-adv-x="1054" d="M373 0H358Q271 3 213 37Q161 65 123 129Q64 234 94 393Q98 418 121 502Q188 692 348 813Q501 934 666 934Q741 936 805 903T911 805Q924 783 916 758T885 717Q862 700 837 702T799 725Q746 806 643 809Q532
809 414 719Q290 623 242 481Q226 433 221 393Q204 299 221 242Q240 176 291 150Q322 127 385 127H395Q457 127 514 152Q565 174 621 225Q727 324 815 504Q883 646 952 852Q1061 1210 1094 1311Q1103 1337 1125 1353T1171 1366Q1197 1363 1209 1342T1214 1296Q1132
1003 1075 834Q962 445 930 244Q922 208 918 174T914 127T915 106Q926 87 920 62T891 20Q868 3 842 5T803 29Q788 85 790 139T803 244Q803 247 804 251T805 258L795 250Q684 96 549 39Q463 0 373 0Z" />
<glyph unicode="e" glyph-name="e" horiz-adv-x="978" d="M156 96Q60 198 88 369Q104 453 145 535Q242 722 424 825Q579 911 739 911Q813 911 866 891Q925 872 958 825Q981 794 981 750Q981 733 977 713Q951 570 793 463Q622 347 356 322Q332 320 314 337T299
381Q301 406 321 425T367 446Q598 469 735 561Q836 632 852 713Q855 738 843 754T805 776T761 784T717 786Q592 786 469 717Q333 641 258 496Q222 424 213 369Q199 257 256 190Q314 127 432 127Q522 127 625 170T829 303Q851 323 877 324T920 309Q935 289 931 264T905
219Q785 111 657 56T412 0Q246 0 156 96Z" />
<glyph unicode="f" glyph-name="f" horiz-adv-x="600" d="M707 905Q732 904 747 885T758 842Q753 815 733 797T686 778H680Q582 778 469 752Q440 741 414 735Q407 717 379 625Q328 444 229 59Q223 34 203 17T158 0Q156 0 154 2Q128 4 113 24T104 70Q198 439 266
670L256 664Q239 651 217 651Q187 651 170 678Q158 698 167 723T201 764Q239 790 311 823Q366 988 418 1092Q462 1184 520 1251Q551 1285 594 1315Q623 1336 684 1364Q710 1373 733 1363T762 1327Q767 1302 752 1278T711 1247Q661 1229 627 1196Q589 1160 553 1094Q512
1023 457 870Q591 905 700 905H707Z" />
<glyph unicode="g" glyph-name="g" horiz-adv-x="1046" d="M-55 -565H-102Q-128 -565 -142 -546T-152 -502Q-147 -475 -126 -457T-80 -440H-35Q203 -440 354 -381Q497 -331 598 -217Q665 -150 717 -43Q750 19 805 158Q590 0 389 0Q275 0 193 55Q113 110 88 213Q74
279 86 362Q98 432 133 506Q220 700 397 811Q564 913 727 913Q823 913 883 881Q955 846 983 799V801Q994 843 1004 862Q1011 887 1034 902T1081 913Q1105 910 1118 891T1124 848Q1018 434 991 342Q921 98 842 -59Q768 -200 707 -270Q600 -399 449 -471Q243 -565
-55 -565ZM453 709Q313 619 248 473Q224 420 213 362Q199 248 248 188Q306 125 412 125Q494 125 596 169T807 307Q820 320 846 358Q878 424 887 449Q906 498 952 668Q952 672 958 690Q934 680 912 685T877 709Q854 746 813 766Q767 788 705 788Q578 788 453 709Z"
/>
<glyph unicode="h" glyph-name="h" horiz-adv-x="983" d="M113 0H109Q83 1 70 21T63 68Q231 724 365 1069Q407 1183 453 1266Q474 1308 502 1341Q520 1364 546 1370T590 1362Q611 1348 612 1323T596 1274Q586 1263 561 1225L518 1133Q484 1056 418 862Q407 832
396 797T371 716T348 643Q427 741 522 805Q584 846 651 870T749 897T801 901Q883 901 936 862Q1061 754 1006 465Q973 283 889 53Q882 27 859 12T809 2Q784 7 773 27T770 74Q966 610 863 741Q833 778 780 776Q682 771 584 705Q500 654 426 557Q267 361 188 57Q180
34 159 17T113 0Z" />
<glyph unicode="i" glyph-name="i" horiz-adv-x="397" d="M424 901Q447 875 434 844Q425 817 338 524Q230 163 258 98Q267 77 258 52T227 12Q210 0 188 0Q135 0 127 70Q121 120 139 225Q161 344 215 539L276 739Q255 726 231 730T195 754Q183 771 190 798T221
842Q299 893 367 911Q400 925 424 901ZM530 1237Q544 1218 539 1193T512 1149Q469 1106 457 1096Q431 1073 406 1073T367 1087Q349 1102 351 1128T375 1176Q381 1184 393 1196Q416 1219 425 1227T456 1249T495 1260T530 1237Z" />
<glyph unicode="j" glyph-name="j" horiz-adv-x="395" d="M371 905Q403 908 420 888T430 836L252 217Q158 -96 68 -256Q-20 -405 -151 -493T-442 -573Q-468 -573 -482 -556T-492 -512Q-487 -485 -467 -467T-420 -449Q-321 -449 -246 -414Q-191 -388 -146 -346T-66
-248T-8 -143T43 -25Q95 103 152 305Q172 371 213 516T279 741Q254 729 231 734T197 758Q185 779 193 805T227 846Q260 866 303 884T371 905ZM526 1231Q541 1210 536 1185T508 1143Q505 1139 495 1129T471 1105T455 1090Q429 1067 401 1067Q379 1067 365 1081Q347
1096 348 1122T371 1167Q397 1201 438 1233Q460 1251 485 1250T526 1231Z" />
<glyph unicode="k" glyph-name="k" horiz-adv-x="927" d="M713 682Q581 605 487 518Q507 511 520 502Q579 473 655 410Q822 262 862 88Q868 63 854 39T813 4Q801 0 791 0Q771 0 757 10T739 39Q708 163 608 266T387 414Q249 248 186 55Q179 31 159 17T115 2H109Q84
5 71 24T63 70Q243 757 367 1071Q414 1195 455 1268Q480 1317 504 1343Q522 1365 548 1371T592 1364Q612 1350 613 1325T596 1276Q589 1267 563 1225Q528 1151 520 1133Q486 1058 420 864Q340 617 305 496Q312 504 397 592Q570 754 793 850Q899 897 985 911Q1013
918 1032 903T1049 862Q1049 836 1030 815T983 788Q957 786 874 758Q783 721 713 682Z" />
<glyph unicode="l" glyph-name="l" horiz-adv-x="507" d="M109 240L115 270Q157 442 232 681T381 1120Q431 1253 469 1327Q481 1352 504 1363T553 1368Q576 1361 584 1338T584 1290Q540 1199 502 1094Q484 1048 403 823Q284 452 240 260Q235 232 235 210T238 173T249
149T263 135T280 128T295 125T308 125Q310 125 311 125Q342 125 387 135Q415 141 434 128T455 90Q458 64 441 42T397 14Q345 0 291 0Q206 -3 160 28T107 113T109 240Z" />
<glyph unicode="m" glyph-name="m" horiz-adv-x="1556" d="M113 0H109Q83 1 70 21T63 68Q187 570 297 864Q308 889 331 903T379 913Q405 907 415 887T416 840Q411 822 399 789T383 745Q431 797 471 821Q578 898 702 907H725Q767 904 800 892T855 864T892 824T915
780T927 732T931 687T932 647V612Q1004 732 1071 793Q1122 845 1194 876T1337 913T1470 883T1561 772Q1574 714 1576 665T1575 586T1561 512Q1526 327 1423 51Q1416 25 1392 11T1341 2Q1318 8 1307 29T1305 76Q1404 341 1436 512Q1452 608 1446 662Q1443 720 1423
745Q1393 784 1333 784Q1300 783 1268 773T1210 750T1158 713T1112 669T1071 617T1035 562T1002 504T974 449T948 395Q899 289 797 49Q787 24 764 11T715 2Q691 8 680 29T678 74Q759 301 788 465Q800 528 803 579T802 662T787 719T765 755T739 774T717 782T702
784H688Q608 776 530 723Q459 673 395 575Q273 392 188 57Q180 34 159 17T113 0Z" />
<glyph unicode="n" glyph-name="n" horiz-adv-x="1005" d="M117 0H111Q85 2 72 22T66 68Q174 515 291 860Q299 885 323 900T371 911Q397 907 408 887T412 840Q404 817 395 791T375 731T358 678Q427 757 510 815Q582 859 651 882T773 905T865 897T934 870Q975 842
997 796T1022 688T1023 579T1010 465Q982 312 891 53Q882 27 859 13T809 2Q784 7 773 27T770 74Q853 303 883 465Q897 547 897 639Q884 801 739 784Q647 768 569 717Q484 658 416 565Q269 372 188 57Q182 34 161 17T117 0Z" />
<glyph unicode="o" glyph-name="o" horiz-adv-x="976" d="M227 63Q129 137 94 244Q81 315 84 374T112 495T160 601T215 684Q279 762 375 823Q535 919 748 922Q809 922 874 909Q899 906 911 885T915 838Q911 825 887 801Q893 797 899 791T912 775T924 762Q969 691
985 618T993 482T962 361T904 256T836 175T770 119Q613 3 453 0H442Q318 0 227 63ZM551 772L494 752Q378 704 311 616Q256 545 229 465Q224 454 215 412Q203 352 219 297Q232 252 270 207Q346 125 463 125H469Q588 128 700 215Q778 289 820 360T866 489T859 592T821
676Q792 711 748 731T657 752Q634 752 610 745Q590 742 574 749T551 772Z" />
<glyph unicode="p" glyph-name="p" horiz-adv-x="1107" d="M-6 -584H-10Q-36 -583 -50 -564T-59 -520Q30 -104 119 211Q212 563 330 856Q339 882 363 895T414 903Q438 897 448 876T449 829Q441 811 426 774T401 715Q408 721 429 741T463 770Q519 815 573 844T677
884T757 899T825 903H836Q957 897 1034 838Q1106 781 1122 682Q1131 615 1120 549Q1095 403 981 264Q863 119 692 49Q566 0 436 0Q366 0 295 12Q270 18 259 39T256 86Q266 112 289 126T340 137Q402 125 459 125Q615 125 750 209Q871 290 938 406Q980 473 993 549Q1004
620 985 676Q964 731 909 758Q866 776 811 776H803Q532 763 369 467Q318 376 274 252Q226 115 174 -80Q151 -169 113 -332T68 -524Q61 -550 40 -567T-6 -584Z" />
<glyph unicode="q" glyph-name="q" horiz-adv-x="1089" d="M573 -557Q557 -544 554 -523T563 -479Q581 -448 639 -326Q655 -291 733 -84Q752 -30 811 162Q599 0 391 0Q276 0 197 55Q115 109 90 213Q76 279 88 362Q100 432 135 506Q223 701 401 811Q562 913 729
913Q788 910 836 898T913 867T958 832T985 799V801L1006 862Q1014 887 1037 902T1085 913Q1107 910 1121 891T1128 848Q1117 807 1099 736T1075 645Q1061 585 1044 537Q891 -38 758 -348Q822 -324 913 -307Q940 -304 958 -319T975 -360Q975 -386 955 -407T909 -432Q833
-443 760 -475Q705 -502 653 -547Q635 -565 606 -565Q588 -565 573 -557ZM457 709Q332 626 262 485Q195 347 222 244Q250 137 373 126Q392 124 414 125Q497 125 600 169T811 307Q840 343 848 358Q879 434 898 486T925 563T952 655Q952 664 954 668Q954 676 961
690Q938 680 916 685T881 709Q859 744 817 766Q768 788 707 788Q582 788 457 709Z" />
<glyph unicode="r" glyph-name="r" horiz-adv-x="745" d="M119 0H113Q86 2 72 22T66 68Q169 494 293 860Q299 884 323 900T373 909Q398 906 410 885T414 838Q413 836 360 682Q414 740 438 760Q531 845 629 887Q696 915 750 915Q807 915 852 885Q887 858 899 820T907
760Q899 723 882 703T847 679T812 680T786 694Q760 724 780 762Q767 781 728 783T662 772Q588 744 516 676Q444 610 383 518Q265 337 188 57Q184 33 164 17T119 0Z" />
<glyph unicode="s" glyph-name="s" horiz-adv-x="872" d="M88 233Q88 236 92 256Q98 281 122 296T172 309Q198 305 209 285T213 240V233Q213 215 222 200T237 180T260 164Q326 125 424 125Q497 125 553 145Q623 176 651 207Q686 248 693 279T682 331T645 363T596
386Q591 388 588 389Q370 459 322 520Q283 563 275 612T285 707T344 794T439 865T560 909T696 920Q745 919 788 911T858 892T907 867T937 845T948 831Q959 811 950 785T918 745Q908 738 895 738T868 742T841 753T815 767T793 778Q737 795 674 795Q613 795 551 776Q511
761 482 742T438 703T419 666T416 633T430 608Q452 583 524 555Q536 550 550 544T583 531T612 520Q674 496 733 467Q797 432 822 386T836 292T799 205T737 129Q595 0 403 0Q88 21 88 233Z" />
<glyph unicode="t" glyph-name="t" horiz-adv-x="600" d="M674 911Q700 909 713 892T721 848Q718 822 697 804T649 786H643Q550 786 432 758Q429 757 421 754T406 750Q317 508 260 262Q240 175 258 146T332 125Q388 131 408 135Q435 141 455 128T475 90Q478 64
462 42T420 14Q365 0 311 0Q196 0 152 67T137 270Q175 440 258 690Q233 679 219 670Q202 659 182 659Q152 659 133 684Q123 705 132 731T166 772Q224 811 309 844Q416 1136 512 1327Q526 1352 550 1363T598 1368T628 1338T625 1288Q544 1129 453 887Q566 911 666
911H674Z" />
<glyph unicode="u" glyph-name="u" horiz-adv-x="972" d="M745 0T719 0T679 18T668 63Q676 106 692 180Q619 113 590 94Q465 0 326 0Q259 0 197 35Q147 67 120 127T89 257T89 374T100 465Q130 636 215 862Q226 888 250 903T297 911Q320 907 331 885T334 838Q252
623 225 465Q208 384 213 319T229 219T250 170Q283 127 346 127Q393 127 438 145Q483 160 528 190Q599 241 664 326Q725 409 762 494Q798 575 809 604Q838 703 889 852Q898 877 922 891T971 903Q995 900 1006 879T1010 831Q1003 809 988 761T959 669T930 584Q885
445 851 315T805 133T791 63V61Q786 35 766 18Z" />
<glyph unicode="v" glyph-name="v" horiz-adv-x="888" d="M315 0Q205 4 137 201Q75 407 125 686Q138 775 162 854Q171 881 193 897T242 909Q267 908 280 887T285 842Q267 776 252 686Q222 516 236 385Q243 281 285 190Q296 168 311 156T339 138T371 136T399 143T427
156T449 170T465 182Q535 232 635 350Q720 461 788 594T887 852Q893 878 915 894T963 909T1002 889T1008 844Q966 657 848 461Q749 285 606 150Q520 66 424 23Q370 0 315 0Z" />
<glyph unicode="w" glyph-name="w" horiz-adv-x="1404" d="M696 35Q650 68 635 135Q627 161 623 211Q534 91 453 46T285 4Q225 8 183 40T121 117T94 222T88 333T100 436Q134 620 227 864Q237 889 261 903T309 911Q333 907 343 885T344 838Q258 616 225 436Q207
325 213 260Q216 202 240 168Q250 151 266 141Q292 129 320 131T371 145Q413 163 444 188Q498 233 541 297Q577 349 618 444Q632 477 688 635Q715 735 762 862Q768 886 792 901T842 911Q865 908 876 887T879 842L811 621Q784 534 764 424Q747 318 750 248Q752 33
981 190Q1044 237 1083 285Q1133 349 1159 406Q1193 469 1206 506Q1241 625 1321 860Q1329 884 1353 898T1403 909Q1426 906 1438 885T1442 838Q1433 810 1406 717T1358 567Q1350 538 1327 483Q1241 192 1221 63V61Q1216 35 1196 18T1149 0T1109 18T1098 63L1116
152Q1007 55 938 27T803 0Q746 0 696 35Z" />
<glyph unicode="x" glyph-name="x" horiz-adv-x="1150" d="M612 45Q553 84 528 166Q516 241 532 303L418 215Q313 128 133 14Q110 -1 85 3T47 29Q37 48 45 74T78 117Q185 186 348 307Q411 360 418 367Q534 472 582 561Q611 611 618 653Q623 696 612 726T579 769T537
786T494 791Q421 791 348 739Q326 722 301 724T262 745T254 790T283 836Q388 915 516 915Q592 915 657 879Q717 841 739 766Q761 672 735 610H737Q884 757 1167 909Q1193 920 1216 914T1249 885Q1259 864 1248 839T1212 801Q1034 700 811 524Q737 453 694 379Q657
322 651 276Q647 127 788 127Q882 127 995 193Q1017 206 1040 200T1075 174Q1085 151 1075 125T1040 86Q893 2 766 2Q673 2 612 45Z" />
<glyph unicode="y" glyph-name="y" horiz-adv-x="1046" d="M-188 -508Q-183 -481 -164 -463T-119 -444Q125 -444 281 -389Q432 -339 535 -233Q597 -169 645 -93T713 31T756 147Q687 96 604 55Q486 2 385 2Q312 0 256 16T166 60T110 126T80 203T72 285T77 362T90
426Q124 548 160 657T216 816L236 864Q246 890 271 903T319 909Q344 903 353 882T352 834Q341 805 311 733Q255 566 229 479Q214 422 208 374T204 291T215 229T236 184T266 155T299 137T334 129T366 126T392 126T408 127Q469 132 524 149T629 198T704 249T770 303Q788
321 809 354Q872 458 946 797L965 858Q974 882 996 897T1042 909Q1066 906 1079 887T1085 844Q1013 557 944 319Q866 75 782 -86Q722 -197 637 -293Q581 -351 519 -396T403 -470T282 -519T170 -548T56 -563T-44 -568T-139 -569Q-165 -569 -179 -552T-188 -508Z"
/>
<glyph unicode="z" glyph-name="z" horiz-adv-x="1083" d="M47 27Q31 63 59 98Q280 304 385 385Q608 567 840 735L928 801Q811 811 719 811Q503 811 350 764Q325 758 305 770T281 807Q276 833 292 855T336 885Q500 936 741 936Q921 936 1118 907Q1138 906 1150
893T1163 860Q1166 819 1126 795Q1107 783 1061 751T993 705L813 571Q590 408 418 264Q320 183 291 156Q437 178 602 178Q735 178 901 160Q927 157 939 137T944 90Q937 64 914 49T864 35Q726 51 580 51Q322 51 109 2Q60 -7 47 27Z" />
<glyph unicode="{" glyph-name="braceleft" horiz-adv-x="555" d="M588 1274Q550 1243 520 1184Q501 1130 498 1108Q489 1068 481 981Q469 887 461 842Q439 755 412 705Q371 629 307 578Q306 575 301 572T295 567L303 561Q335 517 346 477Q367 401 346 297Q333
231 307 158Q268 28 268 27Q256 -33 266 -80Q272 -129 319 -164Q356 -195 416 -215Q436 -223 442 -245T438 -293Q427 -313 409 -325T373 -338Q370 -338 364 -337T356 -336Q247 -298 190 -231Q141 -159 141 -78Q139 -48 150 27Q162 87 190 170Q220 263 227 297Q239
348 236 391Q225 437 201 467Q178 496 147 512Q118 528 125 567V569Q136 609 174 625Q231 656 246 670Q280 696 293 719Q323 764 342 842Q345 858 360 967Q360 1030 379 1108Q394 1189 440 1266Q492 1353 586 1407Q655 1447 735 1473Q758 1480 777 1467T799 1430Q801
1405 785 1382T745 1352Q640 1320 588 1274Z" />
<glyph unicode="|" glyph-name="bar" horiz-adv-x="464" d="M457 1489Q481 1489 494 1473T504 1432L199 -276Q196 -301 177 -317T133 -334T95 -318T84 -276L389 1432Q392 1456 412 1472T457 1489Z" />
<glyph unicode="}" glyph-name="braceright" horiz-adv-x="636" d="M90 -129Q128 -98 158 -39Q177 15 180 37Q190 86 197 164Q209 258 217 303Q239 390 266 440Q308 515 371 567Q372 569 376 572T383 578L375 584Q344 626 332 668Q309 744 332 848Q345 914 371
987Q410 1117 410 1118Q422 1178 412 1225Q406 1275 358 1309Q324 1340 262 1360Q242 1368 236 1390T240 1438Q251 1458 269 1470T305 1483Q308 1483 314 1482T322 1481Q432 1442 487 1376Q537 1305 537 1223Q538 1205 528 1118Q515 1053 487 975Q456 870 451 848Q439
797 442 754Q454 706 477 678Q496 651 530 633Q560 617 553 578V575Q542 535 504 520Q447 489 432 475Q400 450 385 426Q356 384 336 303Q332 287 329 267T323 220T317 178Q317 111 299 37Q283 -46 238 -121Q186 -208 92 -262Q23 -302 -57 -328Q-80 -335 -99 -322T-121
-285Q-123 -260 -108 -237T-68 -207Q38 -175 90 -129Z" />
<glyph unicode="~" glyph-name="asciitilde" horiz-adv-x="1267" d="M1085 709Q1108 720 1130 714T1159 686Q1168 666 1159 644T1128 608Q1040 559 954 532Q884 512 817 512Q725 512 641 553Q625 560 598 574T549 597T508 612Q473 629 418 629Q320 629 180 561Q158
550 136 556T106 584Q97 603 108 626T141 662Q308 745 438 745Q535 745 616 702Q625 698 674 674T748 641Q787 627 836 627Q886 627 938 643Q1002 661 1085 709Z" />
</font>
</defs>
</svg>
