<?xml version="1.0" standalone="no"?> <!DOCTYPE svg PUBLIC "-//W3C//DTD SVG 1.0//EN" "http://www.w3.org/TR/2001/REC-SVG-20010904/DTD/svg10.dtd" > <svg xmlns="http://www.w3.org/2000/svg" width="100%" height="100%">
<defs >
<font id="lobster" horiz-adv-x="384" ><font-face
    font-family="Lobster 1.3"
    units-per-em="1000"
    panose-1="2 0 5 6 0 0 0 2 0 3"
    ascent="750"
    descent="-250"
    alphabetic="0" />
<missing-glyph horiz-adv-x="385" />
<glyph unicode=" " glyph-name="space" horiz-adv-x="217" />
<glyph unicode="!" glyph-name="exclam" horiz-adv-x="224" d="M150 231H65L136 700H280L150 231ZM160 113T160 80T137 24T81 0T25 23T1 80T24 136T81 159T137 136Z" />
<glyph unicode="&quot;" glyph-name="quotedbl" horiz-adv-x="420" d="M62 561L123 750H228L137 561H62ZM219 561L280 750H385L294 561H219Z" />
<glyph unicode="#" glyph-name="numbersign" horiz-adv-x="659" d="M307 -27L332 111H214L184 -27H127L152 111H45L66 213H170L191 326H89L110 428H209L261 718H349L284 428H389L441 718H529L464 428H568L548 326H442L417 213H524L504 111H394L364 -27H307ZM262
326L237 213H350L371 326H262Z" />
<glyph unicode="$" glyph-name="dollar" horiz-adv-x="403" d="M110 -27L134 108Q24 117 24 222Q24 260 45 284T96 308Q116 308 127 301T139 283Q99 276 99 209Q99 167 141 148L177 344Q152 366 129 383T88 426T71 481Q71 534 118 572T225 612L244 718H302L277
609Q364 595 364 526Q364 491 351 471T316 450Q296 450 277 473Q301 487 301 525Q301 556 269 569L233 408Q261 390 273 381T307 351T337 308T346 255Q346 186 297 148T166 107L137 -27H110ZM241 234Q241 274 212 310L175 144Q209 148 225 173T241 234ZM166 500Q166
467 194 439L218 574Q166 563 166 500Z" />
<glyph unicode="%" glyph-name="percent" horiz-adv-x="644" d="M579 750L193 0H121L507 750H579ZM269 702Q351 702 351 589Q351 515 310 445T203 374Q148 374 128 402T107 488Q107 579 151 640T269 702ZM181 519Q179 495 179 476Q179 411 206 411Q244 411 267
468T291 604Q291 667 266 667T214 627T181 519ZM517 328Q561 328 585 299T609 215Q609 181 600 146T574 76T524 21T451 0Q396 0 376 28T355 114Q355 205 399 266T517 328ZM424 145Q422 121 422 102Q422 37 449 37Q487 37 509 90T531 223Q531 291 503 291Q479 291
455 252T424 145Z" />
<glyph unicode="&amp;" glyph-name="ampersand" horiz-adv-x="682" d="M676 413H682Q682 371 636 328T530 274Q514 217 494 173T453 99T406 49T359 18T309 2T263 -5T218 -6Q120 -6 66 53T11 196Q11 273 58 336T192 417Q93 471 93 569Q93 642 153 696T315 750Q393
750 446 717T499 616Q499 524 429 524Q394 524 372 550Q389 555 402 583T416 632Q416 706 350 706Q296 706 262 670T228 583Q228 536 260 492T360 418Q271 381 229 328T186 217Q186 162 220 123T303 84Q364 84 413 128T484 273Q473 273 450 275T413 278Q347 278
319 233L312 234Q327 297 378 336T505 375Q519 375 544 373T581 370Q652 370 676 413Z" />
<glyph unicode="&apos;" glyph-name="quotesingle" horiz-adv-x="197" d="M15 561L76 750H181L90 561H15Z" />
<glyph unicode="(" glyph-name="parenleft" horiz-adv-x="437" d="M464 750L477 710Q405 674 343 572T246 336T211 73Q211 -114 284 -221L251 -250Q138 -125 138 100Q138 231 177 362T292 598T464 750Z" />
<glyph unicode=")" glyph-name="parenright" horiz-adv-x="413" d="M-16 -250L-29 -210Q81 -155 159 36T237 427Q237 614 164 721L197 750Q310 625 310 400Q310 268 271 138T156 -98T-16 -250Z" />
<glyph unicode="*" glyph-name="asterisk" horiz-adv-x="515" d="M223 752H287V617L394 679L424 627L315 564L424 501L394 449L287 511V376H223V511L116 449L86 501L195 564L86 627L116 679L223 617V752Z" />
<glyph unicode="+" glyph-name="plus" horiz-adv-x="515" d="M345 439L318 317H445L422 205H294L267 82H154L181 205H53L77 317H205L232 439H345Z" />
<glyph unicode="," glyph-name="comma" horiz-adv-x="216" d="M24 75Q24 108 47 131T103 155Q135 155 153 134T171 79Q171 32 136 -26T41 -126Q32 -120 32 -109Q32 -91 58 -64T84 -18Q84 -7 71 2Q24 33 24 75Z" />
<glyph unicode="-" glyph-name="hyphen" horiz-adv-x="290" d="M237 301L220 222H19L37 301H237Z" />
<glyph unicode="." glyph-name="period" horiz-adv-x="263" d="M31 42T31 75T54 131T110 155T166 132T190 75T167 19T110 -4T54 19Z" />
<glyph unicode="/" glyph-name="slash" horiz-adv-x="311" d="M295 750L83 -250H11L223 750H295Z" />
<glyph unicode="0" glyph-name="zero" horiz-adv-x="546" d="M377 750Q555 750 555 489Q555 412 534 327T474 166T373 41T237 -9Q116 -9 73 54T30 254Q30 391 71 503T192 682T377 750ZM188 325Q183 257 183 226Q183 75 242 75Q297 75 339 147T403 326T424 553Q424
624 413 661T370 698Q319 698 260 590T188 325Z" />
<glyph unicode="1" glyph-name="one" horiz-adv-x="317" d="M324 748L165 0H21L153 624H58L70 670Q193 670 324 748Z" />
<glyph unicode="2" glyph-name="two" horiz-adv-x="492" d="M286 114Q338 114 364 127T436 183Q437 167 437 139Q437 59 413 24T318 -11Q263 -11 192 7T70 25Q60 25 46 20T14 7T-9 -3Q-12 13 -12 29Q-12 73 6 116T53 194T118 266T188 341T252 419T300 509T318
613Q318 648 299 671T257 695Q210 695 193 675T176 614Q176 593 185 572T214 546Q176 512 137 512Q106 512 86 536T66 602Q66 661 117 705T272 749Q462 749 462 588Q462 525 434 469T360 369T268 288T175 209T106 132Q127 132 186 124T286 114Z" />
<glyph unicode="3" glyph-name="three" horiz-adv-x="514" d="M205 257Q167 254 147 234T122 192T117 139Q117 92 139 75T206 58Q258 58 293 110T328 232Q328 294 296 345T199 418Q280 440 324 498T369 616Q369 651 353 673T306 695Q215 695 215 614Q215 593 224
572T253 546Q215 512 176 512Q145 512 125 536T105 602Q105 660 160 704T321 749Q403 749 450 707T497 602Q497 550 462 500T361 417Q423 398 454 355T485 255Q485 159 410 77T227 -5Q198 -5 173 -3T115 10T61 36T22 84T6 156Q6 227 36 267T124 308Q194 308 205
257Z" />
<glyph unicode="4" glyph-name="four" horiz-adv-x="476" d="M252 275H8Q20 311 59 392T126 549T154 690Q154 722 147 750Q193 750 225 725T258 655Q258 611 242 566T205 491T156 418T112 349H268L349 730L497 750L411 349H475L455 275H395L337 0H193L252 275Z" />
<glyph unicode="5" glyph-name="five" horiz-adv-x="517" d="M500 749Q502 727 502 716Q502 663 475 632T392 600Q355 600 292 612T220 625L180 444Q245 475 304 475Q391 475 436 417T481 266Q481 157 408 76T204 -5Q163 -5 134 0T76 19T31 65T15 145Q15 210 54
245T141 281Q205 281 216 230Q126 218 126 128Q126 87 152 69T216 50Q274 50 304 112T335 260Q335 312 307 351T226 391Q165 391 76 335L158 734Q307 717 338 717Q419 717 500 749Z" />
<glyph unicode="6" glyph-name="six" horiz-adv-x="497" d="M225 305Q205 334 205 363Q205 406 246 434T346 463Q412 463 446 414T481 298Q481 171 402 83T211 -5Q153 -5 114 10T54 55T25 117T16 193Q16 217 17 230Q33 467 123 608T374 750Q427 750 458 725T489
668Q489 641 466 622T400 600Q416 615 416 636T402 673T366 690Q353 690 338 686T293 657T240 591T191 462T155 258Q150 206 150 180Q150 110 171 86T233 61Q281 61 323 132T366 284Q366 381 313 381Q262 381 225 305Z" />
<glyph unicode="7" glyph-name="seven" horiz-adv-x="464" d="M184 750H512Q455 666 342 487T211 265Q179 192 179 136T228 39Q213 0 136 0Q86 0 60 27T33 125Q33 172 51 225T94 325T166 434T249 541T348 657Q304 663 264 663Q120 663 56 592Q48 626 48 650Q48
700 80 725T184 750Z" />
<glyph unicode="8" glyph-name="eight" horiz-adv-x="499" d="M208 58Q257 58 290 110T323 232Q323 329 260 383Q201 344 169 281T137 158Q137 114 155 86T208 58ZM203 -5Q105 -5 49 54T-8 196Q-8 269 38 331T172 417Q87 466 87 553Q87 629 151 689T310 749Q400
749 449 708T499 604Q499 551 463 501T359 417Q420 398 450 357T480 261Q480 164 399 80T203 -5ZM271 451Q319 482 345 533T372 632Q372 665 359 684T320 704Q273 704 246 665T218 572Q218 495 271 451Z" />
<glyph unicode="9" glyph-name="nine" horiz-adv-x="489" d="M288 424Q309 399 309 374Q309 336 270 309T175 282Q106 282 70 335T34 457Q34 581 109 665T293 750Q486 750 486 515Q486 364 446 247T328 63T147 -5Q93 -5 60 21T27 80Q27 106 49 124T114 145Q100
131 100 111Q100 89 114 72T151 55Q160 55 169 57T198 68T235 94T273 142T310 219T341 332T361 487Q363 525 363 539Q363 625 342 654T275 684Q227 684 188 615T148 467Q148 426 160 395T204 364Q265 364 288 424Z" />
<glyph unicode=":" glyph-name="colon" horiz-adv-x="267" d="M41 102T41 135T64 191T120 215T176 192T200 135T177 79T120 56T64 79ZM91 342T91 375T114 431T170 455T226 432T250 375T227 319T170 296T114 319Z" />
<glyph unicode=";" glyph-name="semicolon" horiz-adv-x="276" d="M94 298T94 331T117 387T173 411T229 388T253 331T230 275T173 252T117 275ZM46 91Q46 124 69 147T125 171Q157 171 175 150T193 95Q193 48 158 -10T63 -110Q54 -104 54 -93Q54 -75 80 -48T106
-2Q106 9 93 18Q46 49 46 91Z" />
<glyph unicode="&lt;" glyph-name="less" horiz-adv-x="359" d="M336 429L326 374L85 254L279 158L267 101L20 238L29 279L336 429Z" />
<glyph unicode="=" glyph-name="equal" horiz-adv-x="515" d="M468 428L445 316H76L100 428H468ZM424 213L401 101H32L56 213H424Z" />
<glyph unicode="&gt;" glyph-name="greater" horiz-adv-x="344" d="M75 374L84 429L330 279L319 225L15 101L29 158L269 254L75 374Z" />
<glyph unicode="?" glyph-name="question" horiz-adv-x="441" d="M425 579Q425 525 405 484T354 416T291 364T229 306T185 232H119Q119 271 137 307T183 371T237 429T282 497T301 577Q301 612 286 629T246 646Q216 646 191 623T166 563Q166 542 175 522T204 497Q178
455 131 455Q100 455 78 477T55 539Q55 599 108 649T265 700Q359 700 392 669T425 579ZM207 113T207 80T184 24T128 0T72 23T48 80T71 136T128 159T184 136Z" />
<glyph unicode="@" glyph-name="at" horiz-adv-x="562" d="M394 99Q407 89 407 82Q407 78 402 71Q365 15 302 -11T173 -38Q100 -38 46 9T-8 152Q-8 252 26 333T111 461T214 532T312 557Q491 557 491 412Q491 301 438 219T319 136Q298 136 285 144Q260 121 207
121Q185 121 170 146T154 199Q154 219 162 255T186 332T230 402T290 432Q311 432 323 415L327 430L383 424L338 232Q334 216 334 209Q334 190 347 190Q375 190 399 275T424 412Q424 451 404 472T324 493Q238 493 170 397T102 163Q102 113 129 83T204 52Q301 52
347 98Q360 111 370 111Q379 111 394 99ZM270 185V195Q270 208 273 216L315 383Q308 390 294 390Q263 390 241 326T219 212Q219 194 225 187T255 180Q262 180 270 185Z" />
<glyph unicode="A" glyph-name="A" horiz-adv-x="668" d="M535 0H391L468 363Q394 395 333 399Q277 277 241 149T204 -57Q204 -74 206 -85T210 -100T215 -107T218 -113Q189 -111 177 -110T142 -103T111 -85T93 -53T84 -1Q84 63 124 174T231 399Q132 392 114 347Q118
347 122 337T127 316Q127 299 112 288T66 277Q42 277 26 292T9 340Q9 386 68 420T204 455Q230 455 263 452Q345 584 437 667T612 751Q656 751 692 736L535 0ZM477 407L535 679Q449 632 353 441Q424 428 477 407Z" />
<glyph unicode="B" glyph-name="B" horiz-adv-x="635" d="M230 636L378 656L330 434H337Q396 434 437 486T479 599Q479 645 452 674T369 704Q246 704 173 639T99 461Q99 438 102 424T109 402T113 393Q59 393 33 415T6 490Q6 588 118 669T357 750Q468 750 526 704T584
590Q584 545 558 502T484 432Q542 421 570 377T599 269Q599 167 539 75T400 -17Q364 -17 342 -14T301 6T282 52Q282 79 295 115Q317 79 362 79Q402 79 431 137T461 263Q461 316 439 351T370 386Q347 386 320 383L238 0H94L230 636Z" />
<glyph unicode="C" glyph-name="C" horiz-adv-x="497" d="M500 180L523 170Q504 118 471 82T398 27T320 2T243 -6Q201 -6 165 5T96 44T44 123T24 249Q24 319 33 385T66 519T127 637T224 718T361 750Q437 750 486 717T535 616Q535 524 465 524Q430 524 408 550Q425
555 438 583T452 632Q452 645 449 658T429 687T383 703Q325 703 277 631T205 462T181 271Q181 168 208 126T313 84Q373 84 423 108T500 180Z" />
<glyph unicode="D" glyph-name="D" horiz-adv-x="663" d="M230 636L378 656L258 95Q285 75 315 75Q371 75 416 144T484 311T507 508Q507 610 479 657T369 704Q246 704 173 639T99 461Q99 438 102 424T109 402T113 393Q59 393 33 415T6 490Q6 588 118 669T357 750Q645
750 645 480Q645 353 607 239T505 56T368 -13Q308 -13 246 40L238 0H94L230 636Z" />
<glyph unicode="E" glyph-name="E" horiz-adv-x="459" d="M461 180L484 170Q420 -6 218 -6Q120 -6 66 53T11 196Q11 273 58 336T192 417Q93 471 93 569Q93 642 153 696T315 750Q393 750 446 717T499 616Q499 524 429 524Q394 524 372 550Q389 555 402 583T416
632Q416 706 350 706Q296 706 262 670T228 583Q228 536 260 492T360 418Q271 381 229 328T186 217Q186 162 220 123T303 84Q359 84 395 107T461 180Z" />
<glyph unicode="F" glyph-name="F" horiz-adv-x="495" d="M322 419H476L456 345H306L232 0H88L232 668Q169 665 136 619T102 461Q102 438 105 424T112 402T116 393Q62 393 36 415T9 490T28 587T86 669T193 728T350 750Q367 750 424 744T516 738Q569 738 606 750Q597
727 593 704T568 660T511 630Q460 630 371 649L322 419Z" />
<glyph unicode="G" glyph-name="G" horiz-adv-x="578" d="M417 418H546L464 42Q437 -83 381 -145T208 -207Q141 -207 105 -167T69 -69Q69 -14 102 27T191 68Q211 68 224 67T254 59T280 39T289 1Q289 -17 283 -39Q252 -13 223 -13Q190 -13 172 -36T153 -89Q153
-117 169 -137T216 -157Q253 -157 276 -132T316 -34L356 145Q289 109 234 109Q120 109 70 179T19 365Q19 463 60 549T183 693T373 750Q451 750 505 717T559 616Q559 524 489 524Q442 524 420 550Q437 555 450 583T464 632Q464 645 461 658T441 687T395 703Q342
703 290 650T205 516T173 357Q173 285 201 239T289 192Q346 192 374 229L417 418Z" />
<glyph unicode="H" glyph-name="H" horiz-adv-x="631" d="M397 748L332 444Q406 457 432 457Q447 457 454 456L516 748H660L501 0H357L436 371Q409 381 372 381Q350 381 318 377L238 0H94L239 680Q172 652 136 596T99 461Q99 438 102 424T109 402T113 393Q59 393
33 415T6 490Q6 588 118 669T357 750Q371 750 397 748Z" />
<glyph unicode="I" glyph-name="I" horiz-adv-x="375" d="M397 748L238 0H94L239 679Q173 651 136 596T99 461Q99 438 102 424T109 402T113 393Q59 393 33 415T6 490Q6 588 118 669T357 750Q371 750 397 748Z" />
<glyph unicode="J" glyph-name="J" horiz-adv-x="536" d="M538 750H578L428 40Q402 -83 342 -145T165 -207Q95 -207 56 -169T17 -66Q17 -12 50 28T139 68Q159 68 172 67T202 59T228 39T237 1Q237 -17 231 -39Q200 -13 171 -13Q138 -13 120 -35T101 -87Q101 -122
122 -139T169 -157Q205 -157 226 -132T264 -34L421 680Q354 652 317 596T280 461Q280 438 283 424T290 402T294 393Q240 393 214 415T187 490Q187 588 299 669T538 750Z" />
<glyph unicode="K" glyph-name="K" horiz-adv-x="601" d="M397 748L331 442Q559 750 559 745H664L385 424Q398 426 421 426Q545 426 545 319Q545 276 521 186T496 66Q496 15 535 0Q476 -17 436 -17Q358 -17 358 50Q358 82 384 178T411 313Q411 380 351 380Q335
380 318 376L238 0H94L239 680Q172 652 136 596T99 461Q99 438 102 424T109 402T113 393Q59 393 33 415T6 490Q6 588 118 669T357 750Q371 750 397 748Z" />
<glyph unicode="L" glyph-name="L" horiz-adv-x="392" d="M397 738L243 20Q283 11 343 -22T463 -82T579 -109Q624 -109 663 -93Q655 -165 627 -207T559 -250Q520 -250 476 -227T390 -170T306 -103T213 -47T113 -23Q98 -23 90 -24L239 669Q173 641 136 586T99 451Q99
428 102 414T109 392T113 383Q59 383 33 405T6 480Q6 578 118 659T357 740Q371 740 397 738Z" />
<glyph unicode="M" glyph-name="M" horiz-adv-x="785" d="M650 0H506L606 473L416 0H279V427L147 0H67L291 687Q215 663 173 605T130 461Q130 438 133 424T140 402T144 393Q90 393 64 415T37 490Q37 550 85 610T210 708T362 746Q400 746 431 736V160L650 736H807L650 0Z" />
<glyph unicode="N" glyph-name="N" horiz-adv-x="702" d="M580 748H724L565 0H421Q363 0 363 204Q363 252 366 361T370 523Q370 584 368 612L238 0H94L239 680Q172 652 136 596T99 461Q99 438 102 424T109 402T113 393Q59 393 33 415T6 490Q6 588 118 669T357
750Q417 750 432 714T448 564Q448 510 443 394T437 231Q437 156 447 122L580 748Z" />
<glyph unicode="O" glyph-name="O" horiz-adv-x="658" d="M388 656Q253 478 253 237Q253 167 273 121T332 75Q374 75 417 142T487 308T515 500Q515 546 510 579T490 642T445 688T369 704Q246 704 173 639T99 461Q99 438 102 424T109 402T113 393Q59 393 33 415T6
490Q6 588 118 669T357 750Q501 750 566 682T631 479Q631 405 609 321T549 162T454 40T332 -9Q232 -9 180 44T127 217Q127 290 140 366T178 510T245 621T341 664Q361 664 388 656Z" />
<glyph unicode="P" glyph-name="P" horiz-adv-x="573" d="M230 636L378 656L307 322Q379 328 430 406T482 568Q482 628 451 666T358 704Q236 704 168 640T99 461Q99 438 102 424T109 402T113 393Q59 393 33 415T6 490Q6 588 118 669T357 750Q473 750 533 694T593
553Q593 451 513 368T304 285H299L238 0H94L230 636Z" />
<glyph unicode="Q" glyph-name="Q" horiz-adv-x="658" d="M378 656Q243 478 243 238Q243 189 254 148Q287 157 314 157Q363 157 398 127Q446 189 480 295T515 500Q515 546 510 579T490 642T445 688T369 704Q246 704 173 639T99 461Q99 438 102 424T109 402T113
393Q59 393 33 415T6 490Q6 588 118 669T357 750Q501 750 566 682T631 479Q631 367 585 242T463 48Q490 10 516 -9T584 -29Q590 -29 606 -27Q588 -76 563 -94T503 -113Q447 -113 421 -84T378 -2Q352 -9 332 -9Q117 -9 117 222Q117 294 131 370T172 512T240 621T333
664Q352 664 378 656ZM289 120Q278 120 265 117Q286 75 322 75Q335 75 348 82Q327 120 289 120Z" />
<glyph unicode="R" glyph-name="R" horiz-adv-x="601" d="M230 636L378 656L328 424H337Q396 424 437 480T479 599Q479 645 452 674T369 704Q246 704 173 639T99 461Q99 438 102 424T109 402T113 393Q59 393 33 415T6 490Q6 588 118 669T357 750Q468 750 526 704T584
590Q584 543 555 496T476 419Q545 399 545 319Q545 275 521 185T496 66Q496 15 535 0Q476 -17 436 -17Q358 -17 358 50Q358 82 384 178T410 313Q410 381 350 381Q334 381 318 377L238 0H94L230 636Z" />
<glyph unicode="S" glyph-name="S" horiz-adv-x="570" d="M544 630Q544 586 522 558T461 529Q434 529 416 550Q436 562 448 586T461 636Q461 665 443 684T388 703Q346 703 321 680T295 616Q295 580 311 549T353 495T407 446T462 392T503 322T520 227Q520 121 448
58T255 -5Q226 -5 201 -3T143 10T89 36T50 84T34 156Q34 223 77 261T181 300Q251 300 262 249Q201 244 173 218T145 139Q145 92 175 68T244 43Q300 43 327 84T354 186Q354 230 338 269T298 334T246 389T194 441T154 497T138 564Q138 641 211 695T376 750Q544 750
544 630Z" />
<glyph unicode="T" glyph-name="T" horiz-adv-x="481" d="M624 618Q584 618 439 644L301 0H157L299 661Q203 661 151 619T99 460Q99 437 102 423T109 401T113 392Q59 392 33 414T6 489T25 586T83 668T190 727T347 749Q360 749 454 741T604 732Q682 732 719 747Q716
739 712 718T702 683T688 652T663 627T624 618Z" />
<glyph unicode="U" glyph-name="U" horiz-adv-x="678" d="M557 748H700L541 0H397L408 52Q352 1 311 1Q220 1 173 49T126 213Q126 330 168 475T285 695Q198 674 149 614T99 461Q99 438 102 424T109 402T113 393Q59 393 33 415T6 490Q6 588 118 669T357 750Q414
750 432 745Q365 657 309 504T253 237Q253 167 273 121T332 75Q386 75 429 152L557 748Z" />
<glyph unicode="V" glyph-name="V" horiz-adv-x="615" d="M397 748L406 133L616 745H686L408 0H264V683Q183 658 141 601T99 461Q99 438 102 424T109 402T113 393Q59 393 33 415T6 490Q6 588 118 669T357 750Q371 750 397 748Z" />
<glyph unicode="W" glyph-name="W" horiz-adv-x="970" d="M397 748L406 133L616 745H743V133L962 745H1032L754 0H610V509L408 0H264V683Q183 658 141 601T99 461Q99 438 102 424T109 402T113 393Q59 393 33 415T6 490Q6 588 118 669T357 750Q371 750 397 748Z" />
<glyph unicode="X" glyph-name="X" horiz-adv-x="620" d="M552 0H393L340 250L195 0H134L322 332L248 683Q177 657 138 600T99 461Q99 438 102 424T109 402T113 393Q59 393 33 415T6 490Q6 588 118 669T357 750Q371 750 397 748L440 540L556 745H626L458 454L552 0Z" />
<glyph unicode="Y" glyph-name="Y" horiz-adv-x="620" d="M438 0H278L344 308L248 683Q177 657 138 600T99 461Q99 438 102 424T109 402T113 393Q59 393 33 415T6 490Q6 588 118 669T357 750Q371 750 397 748L484 390L632 745H698L504 308L438 0Z" />
<glyph unicode="Z" glyph-name="Z" horiz-adv-x="530" d="M404 78Q397 78 392 86T386 106Q386 167 450 167Q471 167 484 150T497 109Q497 67 463 34T372 0H11L367 708Q321 710 267 710Q185 710 185 688Q192 688 197 680T202 659Q202 599 139 599Q118 599 105 616T92
657Q92 698 122 724T209 750H552L204 58Q250 56 349 56Q404 56 404 78Z" />
<glyph unicode="[" glyph-name="bracketleft" horiz-adv-x="400" d="M182 -188L169 -250H-24L188 750H381L368 689H247L61 -188H182Z" />
<glyph unicode="\" glyph-name="backslash" horiz-adv-x="362" d="M254 -250L42 750H114L326 -250H254Z" />
<glyph unicode="]" glyph-name="bracketright" horiz-adv-x="400" d="M175 688L188 750H381L169 -250H-24L-11 -189H110L296 688H175Z" />
<glyph unicode="^" glyph-name="asciicircum" horiz-adv-x="421" d="M343 561H311L251 641L94 561H50L262 750H283L343 561Z" />
<glyph unicode="_" glyph-name="underscore" horiz-adv-x="444" d="M404 79L387 0H36L54 79H404Z" />
<glyph unicode="`" glyph-name="grave" horiz-adv-x="201" d="M83 561L24 750H129L158 561H83Z" />
<glyph unicode="a" glyph-name="a" horiz-adv-x="503" d="M317 500H461L389 160Q385 138 385 129Q385 91 435 91Q460 91 501 123T567 179H601Q597 175 568 144T519 95T469 51T413 13T364 0Q261 0 242 76Q182 -6 106 -6Q40 -6 11 31T-18 121Q-18 175 -10 226T17
328T65 416T140 476T244 499Q281 499 311 474L317 500ZM252 443Q198 443 158 349T117 148Q117 77 175 77Q205 77 239 127Q240 142 245 160L301 425Q280 443 252 443Z" />
<glyph unicode="b" glyph-name="b" horiz-adv-x="430" d="M99 680L247 700L199 473Q238 502 285 502Q351 502 381 465T412 375Q412 314 395 250T347 128T264 34T147 -3Q-18 -3 -18 111Q-18 133 -12 160L99 680ZM300 368Q300 409 283 425T243 442Q234 442 215 438T189
428L132 160Q124 122 124 105Q124 83 134 76T168 68Q206 68 238 129T285 258T300 368Z" />
<glyph unicode="c" glyph-name="c" horiz-adv-x="360" d="M292 401Q297 419 297 429Q297 463 260 463Q202 463 162 373T122 192Q122 141 137 113T195 85Q286 85 369 179H403Q395 170 374 141T334 92T286 49T215 13T124 0Q-13 0 -13 164Q-13 210 -5 255T22 346T69
426T143 481T244 503Q354 503 354 434Q354 417 349 401Q339 407 324 407Q312 407 292 401Z" />
<glyph unicode="d" glyph-name="d" horiz-adv-x="510" d="M355 680L503 700L389 160Q384 133 384 128Q384 91 434 91Q459 91 500 123T566 179H600Q596 175 567 144T518 95T468 51T412 13T363 0Q261 0 242 76Q182 -6 106 -6Q40 -6 11 31T-18 121Q-18 175 -10 226T17
328T65 416T140 476T244 499Q281 499 311 474L355 680ZM252 443Q198 443 158 349T117 148Q117 77 175 77Q205 77 239 127Q240 142 245 160L301 425Q280 443 252 443Z" />
<glyph unicode="e" glyph-name="e" horiz-adv-x="355" d="M117 158Q117 113 141 93T199 72Q238 72 290 111T367 204H412Q363 116 291 58T130 0Q61 0 22 45T-18 159Q-18 212 -6 268T31 380T105 473T218 509Q346 509 346 405Q346 321 275 267T120 201Q117 177 117
158ZM286 400Q286 456 251 456Q225 456 200 423T157 345T128 249Q194 250 239 297T286 400Z" />
<glyph unicode="f" glyph-name="f" horiz-adv-x="271" d="M388 600H341Q343 620 343 627Q343 643 332 652T305 661Q284 661 264 643T235 579L218 500H291L284 460H210L95 -80Q58 -250 -84 -250Q-132 -250 -167 -220T-202 -142Q-202 -109 -190 -85T-151 -43T-99
-16T-30 8L91 579Q127 749 273 749Q321 749 356 719T391 641Q391 618 388 600ZM-147 -128Q-147 -139 -135 -150T-107 -161Q-67 -161 -50 -83L-37 -25Q-90 -43 -118 -66T-147 -128Z" />
<glyph unicode="g" glyph-name="g" horiz-adv-x="495" d="M312 500H456L362 57Q474 115 516 210L512 131Q503 86 461 56T350 0L333 -80Q297 -250 153 -250Q105 -250 73 -225T41 -153Q41 -97 81 -66T204 -5L214 40Q161 -8 99 -8Q34 -8 5 35T-25 132Q-25 177 -18
223T6 320T51 410T122 474T222 499Q277 499 301 452L312 500ZM233 443Q188 443 156 386T111 266T98 151Q98 88 171 88Q198 88 231 123L290 400Q267 443 233 443ZM96 -139Q96 -151 105 -161T130 -172Q146 -172 162 -149T188 -83L194 -53Q96 -91 96 -139Z" />
<glyph unicode="h" glyph-name="h" horiz-adv-x="515" d="M438 351L397 160Q392 140 392 128Q392 91 442 91Q467 91 508 123T574 179H608Q604 175 575 144T526 95T476 51T420 13T371 0Q247 0 247 109Q247 132 253 160L291 340Q294 354 294 366Q294 393 281 409T248
425Q216 425 186 404L100 0H-44L101 680L249 700L195 447Q270 500 325 500Q367 500 403 462T440 375Q440 359 438 351Z" />
<glyph unicode="i" glyph-name="i" horiz-adv-x="269" d="M64 500H208L136 160Q132 138 132 129Q132 91 182 91Q207 91 248 123T314 179H348Q344 175 315 144T266 95T216 51T160 13T111 0Q-14 0 -14 109Q-14 132 -8 160L64 500ZM83 599T83 632T106 688T162 712T218
689T242 632T219 576T162 553T106 576Z" />
<glyph unicode="j" glyph-name="j" horiz-adv-x="221" d="M54 500H198L105 62Q214 115 258 210L254 131Q245 88 204 62T95 16L75 -80Q39 -250 -105 -250Q-153 -250 -188 -220T-223 -142Q-223 -80 -180 -49T-51 8L54 500ZM65 601T65 634T88 690T144 714T200 691T224
634T201 578T144 555T88 578ZM-168 -128Q-168 -139 -156 -150T-128 -161Q-111 -161 -95 -143T-70 -83L-58 -25Q-111 -43 -139 -66T-168 -128Z" />
<glyph unicode="k" glyph-name="k" horiz-adv-x="489" d="M370 500H478L275 363Q288 366 301 366Q343 366 380 328T417 242Q417 229 414 217L400 160Q395 142 395 128Q395 91 445 91Q463 91 481 105T523 144T560 179H594Q585 170 552 133T495 71T436 23T374 0Q315
0 282 27T249 107Q249 133 256 160L267 206Q270 219 270 232Q270 259 257 275T224 291Q193 291 160 269L103 0H-41L104 680L252 700L177 350Q370 504 370 500Z" />
<glyph unicode="l" glyph-name="l" horiz-adv-x="286" d="M111 680L259 700L144 160Q139 135 139 128Q139 91 189 91Q214 91 255 123T321 179H355Q351 175 322 144T273 95T223 51T167 13T118 0Q-6 0 -6 109Q-6 132 0 160L111 680Z" />
<glyph unicode="m" glyph-name="m" horiz-adv-x="744" d="M683 351L642 160Q637 140 637 123Q637 82 678 82Q728 82 783 184H830Q824 177 799 146T756 95T713 51T663 13T616 0Q492 0 492 109Q492 132 498 160L536 340Q539 353 539 366Q539 393 526 409T493 425Q463
425 435 407Q440 387 440 372Q440 365 438 351L364 0H219L291 340Q294 354 294 366Q294 393 281 409T248 425Q217 425 187 404L101 0H-43L63 500H207L196 447Q269 500 325 500Q353 500 380 482T424 434Q507 500 570 500Q612 500 648 462T685 374Q685 367 683 351Z"
/>
<glyph unicode="n" glyph-name="n" horiz-adv-x="503" d="M446 351L405 160Q400 142 400 128Q400 91 450 91Q468 91 481 98T514 125T545 154H579Q571 146 541 112T490 58T438 19T379 0Q255 0 255 109Q255 132 261 160L299 340Q302 354 302 366Q302 393 289 409T256
425Q224 425 193 404L108 0H-36L70 500H214L202 446Q276 500 333 500Q375 500 411 462T448 375Q448 359 446 351Z" />
<glyph unicode="o" glyph-name="o" horiz-adv-x="418" d="M256 510Q373 510 377 363Q386 354 406 354Q434 354 468 377T511 403L515 382Q465 319 374 294Q361 152 294 73T146 -6T29 32T-7 158Q-7 332 68 421T256 510ZM193 91Q222 91 245 120T281 190T300 284Q279
284 269 297T258 329Q258 351 270 371T302 399Q297 451 260 451Q227 451 200 419T158 339T134 246T126 167Q126 125 143 108T193 91Z" />
<glyph unicode="p" glyph-name="p" horiz-adv-x="455" d="M63 500H207L203 481Q237 499 273 499Q353 499 389 467T426 359Q426 328 420 289Q378 1 201 1Q154 1 107 31L55 -214L-96 -250L63 500ZM185 75Q223 75 245 117T292 277Q305 341 305 378Q305 420 291 435T249
450Q223 450 192 429L120 93Q144 75 185 75Z" />
<glyph unicode="q" glyph-name="q" horiz-adv-x="476" d="M325 500H469L317 -214L166 -250L245 122Q174 4 97 4Q45 4 16 30T-14 110Q-14 281 60 390T241 499Q301 499 319 472L325 500ZM263 455Q226 455 191 407T134 287T112 142Q112 108 118 92T145 75Q185 75
258 184L293 350Q302 395 302 413Q302 455 263 455Z" />
<glyph unicode="r" glyph-name="r" horiz-adv-x="393" d="M74 500H218L207 450Q271 500 325 500Q358 500 377 483T397 436T377 383T322 358Q303 358 294 368T283 391T278 413T264 424Q230 424 195 392L112 0H-32L74 500Z" />
<glyph unicode="s" glyph-name="s" horiz-adv-x="406" d="M143 490L288 520V506Q288 436 305 378T339 270T356 174Q356 160 355 153Q395 188 420 218L446 184Q434 174 338 93Q294 0 162 0Q73 0 32 29T-9 131Q-9 188 13 223T67 260Q108 334 143 490ZM144 199Q144
171 125 153T78 135Q60 135 42 144Q42 59 127 59Q156 59 183 92T210 178Q210 202 187 275T163 418Q162 413 143 349T111 255Q144 244 144 199Z" />
<glyph unicode="t" glyph-name="t" horiz-adv-x="292" d="M106 638L254 658L220 500H280L272 460H212Q144 149 144 129Q144 91 194 91Q219 91 260 123T326 179H360Q356 175 327 144T278 95T228 51T172 13T123 0Q-1 0 -1 109Q-1 133 12 198T44 349T68 460H35L43
500H76L106 638Z" />
<glyph unicode="u" glyph-name="u" horiz-adv-x="520" d="M331 500H475L403 160Q399 138 399 129Q399 91 449 91Q474 91 515 123T581 179H615Q611 175 582 144T533 95T483 51T427 13T378 0Q268 0 255 84Q165 0 111 0Q-14 0 -14 109Q-14 132 -8 160L64 500H208L136
160Q132 138 132 129Q132 91 182 91Q208 91 253 127Q254 142 259 160L331 500Z" />
<glyph unicode="v" glyph-name="v" horiz-adv-x="416" d="M328 520Q359 520 375 496T392 430Q392 367 376 297T328 158T240 45T111 0Q-13 0 -13 109Q-13 136 -8 160L64 500H208L136 160Q131 137 131 123Q131 91 169 91Q215 91 254 151T314 286T334 419Q322 415
313 415Q293 415 282 431T271 471Q271 488 288 504T328 520Z" />
<glyph unicode="w" glyph-name="w" horiz-adv-x="671" d="M592 520Q623 520 639 496T656 430Q656 367 640 297T592 158T504 45T375 0Q268 0 253 83Q162 0 110 0Q-15 0 -15 109Q-15 132 -9 160L63 500H207L135 160Q131 138 131 129Q131 91 181 91Q209 91 251 126Q251
140 256 160L328 500H472L400 160Q395 137 395 123Q395 91 433 91Q479 91 518 151T578 286T598 419Q586 415 577 415Q557 415 546 431T535 471Q535 488 552 504T592 520Z" />
<glyph unicode="x" glyph-name="x" horiz-adv-x="365" d="M-34 58L-53 88Q0 124 75 201L10 500H154L205 265Q245 301 273 344T302 421Q290 419 285 419Q238 419 238 475Q238 499 257 511T306 524Q332 524 347 500T362 440Q362 362 216 213L229 155Q235 130 238
119T254 100T288 91Q313 91 354 123T420 179H454Q450 175 421 144T372 95T322 51T266 13T217 0Q152 0 129 27T85 155L84 158Q72 148 30 112T-34 58Z" />
<glyph unicode="y" glyph-name="y" horiz-adv-x="510" d="M336 500H480L387 62Q496 115 540 210L536 131Q527 88 486 62T377 16L357 -80Q321 -250 177 -250Q129 -250 94 -220T59 -142Q59 -109 71 -85T110 -43T163 -15T231 8L245 76Q162 0 111 0Q-14 0 -14 109Q-14
132 -8 160L64 500H208L136 160Q132 138 132 129Q132 91 182 91Q211 91 257 130L336 500ZM114 -128Q114 -139 126 -150T154 -161Q171 -161 187 -143T212 -83L224 -25Q171 -43 143 -66T114 -128Z" />
<glyph unicode="z" glyph-name="z" horiz-adv-x="383" d="M246 62Q239 62 234 70T228 90Q228 151 292 151Q313 151 326 134T339 93Q339 52 309 26T222 0H-47L216 458Q170 460 143 460Q88 460 88 438Q95 438 100 430T105 409Q105 349 42 349Q21 349 8 366T-5 407Q-5
448 25 474T112 500H381L118 42Q164 40 191 40Q246 40 246 62Z" />
<glyph unicode="{" glyph-name="braceleft" horiz-adv-x="352" d="M383 750L374 700Q338 700 318 696T283 674Q239 625 237 536L243 365Q240 285 203 254Q215 240 215 218Q215 175 156 51T96 -124Q96 -204 181 -204L172 -249H163Q112 -249 90 -242T49 -207Q30
-178 30 -140Q30 -89 83 18T147 175Q150 187 150 197Q150 228 109 228Q96 228 77 225L89 282Q107 279 120 279Q143 279 157 289T178 318T185 352T187 390Q187 418 184 471T180 549Q180 592 194 635T246 714T340 750H383Z" />
<glyph unicode="|" glyph-name="bar" horiz-adv-x="532" d="M312 751V-250H219V751H312Z" />
<glyph unicode="}" glyph-name="braceright" horiz-adv-x="352" d="M30 -249L39 -199Q75 -199 95 -195T130 -173Q174 -124 176 -35L170 136Q173 216 210 247Q198 261 198 283Q198 326 257 450T317 625Q317 705 232 705L241 750H250Q301 750 323 743T364 708Q383
678 383 641Q383 590 330 483T266 326Q263 314 263 304Q263 273 304 273Q316 273 336 276L324 219Q306 222 293 222Q270 222 256 212T235 183T228 149T226 111Q226 83 229 30T233 -48Q233 -91 219 -134T167 -213T73 -249H30Z" />
<glyph unicode="~" glyph-name="asciitilde" horiz-adv-x="431" d="M444 670L450 669Q441 632 393 601T289 569Q255 569 201 587T121 606Q83 606 55 580L49 582Q98 680 216 680Q254 680 304 664T381 647Q423 647 444 670Z" />
</font>
</defs>
</svg>
